<svg id="Capa_1" enable-background="new 0 0 512 512" height="512" viewBox="0 0 512 512" width="512" xmlns="http://www.w3.org/2000/svg"><g><path d="m256 22c-135.31 0-245 109.69-245 245 0 .63.019 1.254.024 1.883l1.99 1h72.549c8.822 0 16-7.178 16-16v-26.776c.644 1.081 1.239 2.094 1.81 3.082 6.184 10.711 17.26 17.105 29.628 17.105s23.444-6.394 29.627-17.104l.114-.199c.529-.917 1.087-1.865 1.697-2.883v26.774c0 8.822 7.178 16 16 16h89.561c13.234 0 24 10.767 24 24v12.088h40.436c8.822 0 16-7.178 16-16v-26.234c.626 1.052 1.215 2.055 1.774 3.024 6.107 10.577 17.043 16.891 29.256 16.891s23.15-6.314 29.257-16.892l.11-.191c.524-.908 1.077-1.847 1.664-2.831v26.231c0 8.822 7.178 16 16 16h66.789l2.781-1c1.926-12.373 2.933-25.052 2.933-37.968 0-135.31-109.69-245-245-245z" fill="#87a6ff"/><g><path d="m428.498 304.971c-8.284 0-15-6.716-15-15v-29.81c-1.207 1.964-2.389 3.933-3.53 5.91l-.11.19c-5.926 10.264-16.539 16.392-28.391 16.392s-22.464-6.127-28.39-16.391c-1.193-2.067-2.411-4.103-3.641-6.121v29.831c0 8.284-6.716 15-15 15h-40.436v204.077c104.885-16.334 187.746-99.187 204.068-204.077h-69.57z" fill="#fe9901"/></g><path d="m295 304.971v203.922c5.735-.915 11.406-2.024 17-3.332v-200.59z" fill="#fb8801"/><g><circle cx="329.5" cy="381.5" fill="#fff" r="22.5"/><path d="m319 381.5c0-10.348 6.988-19.058 16.5-21.685-1.911-.528-3.921-.815-6-.815-12.426 0-22.5 10.074-22.5 22.5s10.074 22.5 22.5 22.5c2.079 0 4.089-.288 6-.815-9.512-2.627-16.5-11.337-16.5-21.685z" fill="#f5f8f9"/></g><g><path d="m270 268.883h-11.65v243.094c12.461-.119 24.699-1.167 36.65-3.079v-215.015c0-13.807-11.193-25-25-25z" fill="#6600c5"/></g><path d="m381.467 282.653c-2.844 0-5.613-.362-8.266-1.04v200.583c5.651-3.084 11.162-6.394 16.532-9.899v-190.684c-2.654.678-5.423 1.04-8.266 1.04z" fill="#fed402"/><path d="m482.209 140.202c0-56.116-45.882-101.516-102.178-100.732-54.514.759-98.895 45.444-99.303 99.961-.211 28.173 11.145 53.691 29.6 72.096 16.425 16.38 30.284 35.146 41.882 55.234 13.003 22.521 45.51 22.521 58.513 0l.11-.191c11.866-20.552 26.545-39.281 43.046-56.336 17.537-18.127 28.33-42.818 28.33-70.032z" fill="#a2e62e"/><path d="m392.486 266.762c-11.598-20.089-25.457-38.854-41.883-55.235-18.455-18.405-29.811-43.924-29.6-72.096.36-48.143 35.013-88.61 80.651-97.94-6.974-1.419-14.207-2.125-21.624-2.021-54.514.759-98.895 45.444-99.303 99.961-.211 28.173 11.145 53.691 29.601 72.096 16.425 16.38 30.284 35.146 41.882 55.234 10.564 18.297 34.001 21.729 49.394 10.296-3.554-2.639-6.679-6.071-9.118-10.295z" fill="#97d729"/><path d="m165.438 253.883v-30.35c-1.218 1.984-2.415 3.97-3.565 5.962l-.112.196c-6.002 10.396-16.754 16.604-28.761 16.604s-22.759-6.208-28.762-16.605c-1.202-2.083-2.433-4.136-3.676-6.176v30.371c0 8.284-6.716 15-15 15h-74.538c1.014 134.439 110.296 243.115 244.976 243.115 1.12 0 2.234-.027 3.35-.042v-243.075h-78.913c-8.284 0-14.999-6.716-14.999-15z" fill="#814be0"/><path d="m133 246.294c-2.88 0-5.684-.366-8.371-1.053v228.587c5.437 3.461 11.025 6.705 16.742 9.738v-238.325c-2.687.687-5.491 1.053-8.371 1.053z" fill="#6600c5"/><path d="m235.021 102.021c0-56.829-46.465-102.806-103.476-102.011-55.206.769-100.15 46.021-100.563 101.23-.142 19.009 4.921 36.82 13.84 52.107-.417 2.202-.644 4.469-.644 6.787 0 20.165 16.498 36.663 36.663 36.663h.068c8.274 10.558 15.745 21.753 22.464 33.39 13.168 22.807 46.088 22.807 59.256 0l.112-.194c6.718-11.636 14.328-22.694 22.652-33.202 20.059-.126 36.432-16.57 36.432-36.657 0-2.318-.228-4.584-.644-6.786 8.795-15.076 13.84-32.611 13.84-51.327z" fill="#a2e62e"/><g><g><g><path d="m365.087 194.83c-.412 0-.824-.053-1.228-.162l-27.096-7.26c-13.365-3.581-24.535-12.152-31.454-24.135-6.918-11.983-8.756-25.942-5.175-39.307.568-2.121 2.486-3.519 4.582-3.519.407 0 .819.053 1.231.163l27.096 7.26c13.365 3.581 24.536 12.152 31.454 24.135s8.756 25.942 5.175 39.307c-.326 1.216-1.121 2.253-2.211 2.882-.728.421-1.548.636-2.374.636z" fill="#314dc9"/></g><path d="m357.279 187.779c-13.365-3.581-24.535-12.152-31.454-24.135-6.884-11.923-8.733-25.803-5.223-39.107l-14.654-3.927c-.412-.11-.825-.163-1.231-.163-2.095 0-4.013 1.399-4.582 3.519-3.581 13.365-1.743 27.324 5.175 39.307s18.088 20.554 31.454 24.135l27.096 7.26c.404.109.817.162 1.228.162.826 0 1.645-.216 2.373-.636 1.09-.629 1.886-1.666 2.211-2.882.018-.066.031-.133.048-.199z" fill="#2740b0"/><g><path d="m397.846 194.83c.412 0 .824-.053 1.228-.162l27.096-7.26c13.365-3.581 24.535-12.152 31.454-24.135s8.756-25.942 5.175-39.307c-.568-2.121-2.486-3.519-4.582-3.519-.406 0-.819.053-1.231.163l-27.096 7.26c-13.365 3.581-24.536 12.152-31.454 24.135s-8.756 25.942-5.175 39.307c.326 1.216 1.121 2.253 2.211 2.882.729.421 1.548.636 2.374.636z" fill="#4f66d0"/></g><g><path d="m397.846 194.83c.412 0 .824-.053 1.228-.162l27.096-7.26c13.365-3.581 24.535-12.152 31.454-24.135s8.756-25.942 5.175-39.307c-.568-2.121-2.486-3.519-4.582-3.519-.406 0-.819.053-1.231.163l-27.096 7.26c-13.365 3.581-24.536 12.152-31.454 24.135s-8.756 25.942-5.175 39.307c.326 1.216 1.121 2.253 2.211 2.882.729.421 1.548.636 2.374.636z" fill="#314dc9"/></g><path d="m418.825 152.005c6.918-11.983 18.089-20.554 31.454-24.135l12.645-3.388c-.044-.172-.079-.344-.125-.516-.568-2.12-2.486-3.519-4.582-3.519-.406 0-.819.053-1.231.163l-27.096 7.26c-13.365 3.581-24.536 12.152-31.454 24.135s-8.756 25.942-5.175 39.307c.326 1.216 1.121 2.253 2.211 2.882.728.42 1.547.636 2.373.636.412 0 .824-.053 1.228-.162l14.451-3.872c-3.397-13.208-1.528-26.962 5.301-38.791z" fill="#2740b0"/></g><path d="m381.467 233.94c7.84 0 15.187 1.39 21.518 3.814 2.969 1.137 5.854-1.887 4.56-4.791-4.447-9.979-14.448-16.936-26.078-16.936s-21.631 6.957-26.078 16.936c-1.294 2.904 1.591 5.928 4.56 4.791 6.331-2.424 13.678-3.814 21.518-3.814z" fill="#314dc9"/><g><path d="m376.318 232.964c3.034-6.808 8.656-12.204 15.614-14.95-3.241-1.279-6.769-1.986-10.465-1.986-11.631 0-21.631 6.957-26.078 16.936-1.294 2.904 1.591 5.928 4.56 4.791 4.84-1.853 10.275-3.095 16.068-3.581.028-.399.12-.805.301-1.21z" fill="#2740b0"/></g></g><g><path d="m224 438h-53c-2.761 0-5-2.239-5-5v-45c0-2.761 2.239-5 5-5h53c2.761 0 5 2.239 5 5v45c0 2.761-2.239 5-5 5z" fill="#fed402"/><path d="m186 433v-45c0-2.761 2.239-5 5-5h-20c-2.761 0-5 2.239-5 5v45c0 2.761 2.239 5 5 5h20c-2.761 0-5-2.239-5-5z" fill="#fac600"/><path d="m224 341h-53c-2.761 0-5-2.239-5-5v-8c0-2.761 2.239-5 5-5h53c2.761 0 5 2.239 5 5v8c0 2.761-2.239 5-5 5z" fill="#fff"/><path d="m186 336v-8c0-2.761 2.239-5 5-5h-20c-2.761 0-5 2.239-5 5v8c0 2.761 2.239 5 5 5h20c-2.761 0-5-2.239-5-5z" fill="#f5f8f9"/><g><circle cx="172.5" cy="359.5" fill="#fed402" r="7.5"/><circle cx="196.5" cy="359.5" fill="#87a6ff" r="7.5"/><circle cx="220.5" cy="359.5" fill="#fff" r="7.5"/></g></g><g><path d="m136.905 227.302c-11.598-20.089-25.457-38.854-41.883-55.235-18.455-18.405-29.811-43.924-29.6-72.096.37-49.4 36.845-90.726 84.247-98.614-5.887-.967-11.943-1.433-18.124-1.347-55.206.769-100.15 46.021-100.563 101.23-.142 19.009 4.921 36.82 13.84 52.107-.417 2.202-.644 4.469-.644 6.787 0 20.165 16.498 36.663 36.663 36.663h.068c8.274 10.558 15.745 21.753 22.464 33.39 10.478 18.147 33.452 21.839 49.039 11.107-6.19-2.729-11.691-7.383-15.507-13.992z" fill="#97d729"/><g><path d="m133 186.739c7.84 0 15.187 1.39 21.518 3.814 2.969 1.137 5.854-1.887 4.56-4.791-4.447-9.979-14.447-16.936-26.078-16.936s-21.631 6.957-26.078 16.936c-1.294 2.904 1.591 5.928 4.56 4.791 6.331-2.424 13.678-3.814 21.518-3.814z" fill="#314dc9"/><g><path d="m127.922 185.763c3.029-6.796 8.637-12.185 15.578-14.934-3.25-1.288-6.791-2.001-10.5-2.001-11.631 0-21.631 6.957-26.078 16.936-1.294 2.904 1.591 5.928 4.56 4.791 4.859-1.861 10.32-3.105 16.139-3.586.029-.398.121-.803.301-1.206z" fill="#2740b0"/></g></g><g><g><g><path d="m116.62 147.629c-.412 0-.824-.053-1.228-.162l-27.096-7.26c-13.365-3.581-24.535-12.152-31.454-24.135s-8.756-25.942-5.175-39.307c.568-2.121 2.486-3.519 4.582-3.519.406 0 .819.053 1.231.163l27.096 7.26c13.365 3.581 24.536 12.152 31.454 24.135s8.756 25.942 5.175 39.307c-.326 1.216-1.121 2.253-2.211 2.882-.728.421-1.548.636-2.374.636z" fill="#314dc9"/></g><path d="m108.812 140.578c-13.365-3.581-24.535-12.152-31.454-24.135-6.884-11.923-8.733-25.803-5.223-39.107l-14.654-3.927c-.412-.11-.825-.163-1.231-.163-2.095 0-4.013 1.399-4.582 3.519-3.581 13.365-1.743 27.324 5.175 39.307s18.088 20.554 31.454 24.135l27.096 7.26c.404.109.817.162 1.228.162.826 0 1.645-.216 2.373-.636 1.09-.629 1.886-1.666 2.211-2.882.018-.066.031-.133.048-.199z" fill="#2740b0"/><g><path d="m149.38 147.629c.412 0 .824-.053 1.228-.162l27.096-7.26c13.365-3.581 24.535-12.152 31.454-24.135 6.918-11.983 8.756-25.942 5.175-39.307-.568-2.121-2.486-3.519-4.582-3.519-.407 0-.819.053-1.231.163l-27.096 7.26c-13.365 3.581-24.536 12.152-31.454 24.135s-8.756 25.942-5.175 39.307c.326 1.216 1.121 2.253 2.211 2.882.728.421 1.548.636 2.374.636z" fill="#4f66d0"/></g><g><path d="m149.38 147.629c.412 0 .824-.053 1.228-.162l27.096-7.26c13.365-3.581 24.535-12.152 31.454-24.135 6.918-11.983 8.756-25.942 5.175-39.307-.568-2.121-2.486-3.519-4.582-3.519-.407 0-.819.053-1.231.163l-27.096 7.26c-13.365 3.581-24.536 12.152-31.454 24.135s-8.756 25.942-5.175 39.307c.326 1.216 1.121 2.253 2.211 2.882.728.421 1.548.636 2.374.636z" fill="#314dc9"/></g><path d="m170.358 104.804c6.918-11.983 18.089-20.554 31.454-24.135l12.645-3.388c-.044-.172-.079-.344-.125-.516-.568-2.12-2.486-3.519-4.582-3.519-.406 0-.819.053-1.231.163l-27.096 7.26c-13.365 3.581-24.536 12.152-31.454 24.135s-8.756 25.942-5.175 39.307c.326 1.216 1.121 2.253 2.211 2.882.728.42 1.547.636 2.373.636.412 0 .824-.053 1.228-.162l14.451-3.872c-3.396-13.208-1.528-26.962 5.301-38.791z" fill="#2740b0"/></g></g></g><g><path d="m376.418 124.702-16.719-28.958c-2.244-3.886.561-8.744 5.049-8.744h33.438c4.488 0 7.292 4.858 5.049 8.744l-16.719 28.958c-2.245 3.887-7.854 3.887-10.098 0z" fill="#e4f7c6"/></g><path d="m377.675 95.744c-2.244-3.886.561-8.744 5.049-8.744h-17.976c-4.488 0-7.292 4.858-5.049 8.744l16.719 28.958c2.244 3.886 7.853 3.886 10.097 0l3.939-6.823z" fill="#d1f19e"/><g><circle cx="73.5" cy="345.5" fill="#fed402" r="22.5"/><path d="m63 345.5c0-10.348 6.988-19.058 16.5-21.685-1.911-.528-3.921-.815-6-.815-12.426 0-22.5 10.073-22.5 22.5s10.074 22.5 22.5 22.5c2.079 0 4.089-.288 6-.815-9.512-2.627-16.5-11.337-16.5-21.685z" fill="#fac600"/></g></g></svg>