<?xml version="1.0" encoding="iso-8859-1"?>
<!-- Generator: Adobe Illustrator 19.0.0, SVG Export Plug-In . SVG Version: 6.00 Build 0)  -->
<svg version="1.1" id="Capa_1" xmlns="http://www.w3.org/2000/svg" xmlns:xlink="http://www.w3.org/1999/xlink" x="0px" y="0px"
	 viewBox="0 0 511.992 511.992" style="enable-background:new 0 0 511.992 511.992;" xml:space="preserve">
<g>
	<polygon style="fill:#D9D9D9;" points="263.027,251.55 305.873,268.617 318.579,259.136 327.3,302.75 314.449,311.284 
		254.46,302.75 254.46,302.75 168.759,396.617 152.572,412.651 118.293,446.784 108.685,456.35 85.329,428.404 92.582,421.184 
		126.869,387.051 101.158,361.451 66.88,387.051 55.752,398.127 31.56,371.017 41.169,361.451 75.447,327.318 91.626,311.284 
		143.048,260.084 98.82,260.348 92.07,263.642 87.249,223.51 99.562,217.434 160.192,217.963 193.062,217.434 	"/>
	<ellipse style="fill:#D9D9D9;" cx="237.316" cy="149.15" rx="102.827" ry="102.4"/>
	<path style="fill:#D9D9D9;" d="M227.545,157.684L257.881,56.99l2.859-7.467c-7.535-1.749-15.351-2.773-23.424-2.773
		c-56.798,0-102.835,45.85-102.835,102.4s46.046,102.4,102.835,102.4c37.717,0,70.605-20.284,88.499-50.432l-1.843-0.768
		L227.545,157.684z"/>
</g>
<polygon style="fill:#FBB540;" points="452.8,38.217 468.458,69.944 503.462,75.03 478.135,99.725 484.117,134.592 452.8,118.132 
	421.491,134.592 427.464,99.725 402.137,75.03 437.141,69.944 "/>
<g>
	<rect x="401.062" y="328.35" style="fill:#F7E4BA;" width="17.067" height="17.067"/>
	<rect x="401.062" y="362.484" style="fill:#F7E4BA;" width="17.067" height="17.067"/>
	<rect x="418.129" y="345.417" style="fill:#F7E4BA;" width="17.067" height="17.067"/>
	<rect x="383.996" y="345.417" style="fill:#F7E4BA;" width="17.067" height="17.067"/>
</g>
<g>
	<rect x="341.329" y="422.217" style="fill:#EA6B65;" width="17.067" height="17.067"/>
	<rect x="341.329" y="456.35" style="fill:#EA6B65;" width="17.067" height="17.067"/>
	<rect x="358.396" y="439.284" style="fill:#EA6B65;" width="17.067" height="17.067"/>
	<rect x="324.262" y="439.284" style="fill:#EA6B65;" width="17.067" height="17.067"/>
</g>
<g>
	<rect x="238.929" y="388.084" style="fill:#F7E4BA;" width="17.067" height="17.067"/>
	<rect x="238.929" y="422.217" style="fill:#F7E4BA;" width="17.067" height="17.067"/>
	<rect x="255.996" y="405.15" style="fill:#F7E4BA;" width="17.067" height="17.067"/>
	<rect x="221.862" y="405.15" style="fill:#F7E4BA;" width="17.067" height="17.067"/>
</g>
<g>
	<rect x="76.796" y="97.95" style="fill:#B3E4E8;" width="17.067" height="17.067"/>
	<rect x="76.796" y="132.084" style="fill:#B3E4E8;" width="17.067" height="17.067"/>
	<rect x="93.862" y="115.017" style="fill:#B3E4E8;" width="17.067" height="17.067"/>
	<rect x="59.729" y="115.017" style="fill:#B3E4E8;" width="17.067" height="17.067"/>
</g>
<ellipse style="fill:#3B869E;" cx="225.421" cy="161.95" rx="21.427" ry="21.333"/>
<path style="fill:#4799CF;" d="M260.74,49.524l-2.859,7.467l-30.336,100.693l96.427,42.667l1.843,0.768
	c9.054-15.249,14.336-32.973,14.336-51.968C340.16,100.638,306.231,60.096,260.74,49.524z"/>
<polygon style="fill:#F27E55;" points="305.873,268.617 340.16,243.017 352.738,233.374 377.792,265.98 365.862,277.15 
	314.449,311.284 "/>
<path style="fill:#B9B9B9;" d="M340.16,243.017l25.711,34.133l20.343-19.063c7.415-6.946,8.439-18.33,2.381-26.479l0,0
	c-6.69-8.994-19.49-10.778-28.399-3.951L340.16,243.017z"/>
<polygon style="fill:#F27E55;" points="98.428,260.357 60.386,279.992 51.196,284.881 35.895,248.709 47.74,243.017 99.562,217.434 
	"/>
<g>
	<path style="fill:#B9B9B9;" d="M60.386,279.992L47.74,243.017l-30.285,14.566c-8.465,5.641-11.349,16.691-6.716,25.728l0,0
		c5.111,9.967,17.442,13.815,27.358,8.542L60.386,279.992z"/>
	<path style="fill:#B9B9B9;" d="M41.169,361.451l-21.427,21.333c-7.1,7.066-7.1,18.534,0,25.6l0,0c7.1,7.066,18.611,7.066,25.711,0
		l21.427-21.333L41.169,361.451z"/>
	<path style="fill:#B9B9B9;" d="M92.582,421.184l25.711,25.6l-21.427,21.333c-7.1,7.066-18.611,7.066-25.711,0l0,0
		c-7.1-7.066-7.1-18.534,0-25.6L92.582,421.184z"/>
</g>
<polygon style="fill:#277BAA;" points="177.327,268.617 143.048,302.75 177.327,336.884 211.605,302.75 "/>
<g>
	<path style="fill:#B3E4E8;" d="M315.37,132.084h-17.067c0-27.153-26.667-34.099-27.802-34.381l4.113-16.563
		C288.712,84.647,315.37,99.81,315.37,132.084z"/>
	<rect x="298.304" y="149.15" style="fill:#B3E4E8;" width="17.067" height="17.067"/>
</g>
<polygon style="fill:#F27E55;" points="175.697,381.999 97.677,305.259 91.831,311.087 85.653,317.368 163.349,393.767 
	167.24,398.127 168.759,396.617 178.871,385.549 "/>
<path d="M504.691,66.582l-30.566-4.446l-13.679-27.699c-2.867-5.837-12.433-5.837-15.3,0l-13.679,27.699L400.9,66.582
	c-3.217,0.469-5.879,2.714-6.895,5.803c-0.998,3.089-0.171,6.485,2.159,8.747l22.127,21.564l-5.222,30.447
	c-0.546,3.2,0.768,6.434,3.388,8.346c2.654,1.929,6.118,2.167,8.994,0.649l27.341-14.379l27.341,14.379
	c1.246,0.657,2.62,0.981,3.977,0.981c1.766,0,3.533-0.546,5.018-1.63c2.628-1.911,3.942-5.146,3.388-8.346l-5.222-30.447
	l22.127-21.564c2.321-2.27,3.157-5.658,2.159-8.747C510.57,69.304,507.908,67.051,504.691,66.582z M472.17,93.615
	c-2.005,1.954-2.927,4.787-2.449,7.552l3.055,17.826l-16.009-8.414c-1.246-0.657-2.611-0.981-3.977-0.981s-2.722,0.324-3.977,0.981
	l-16.009,8.414l3.055-17.826c0.478-2.765-0.444-5.589-2.449-7.552L420.45,80.986l17.903-2.603c2.782-0.401,5.18-2.15,6.426-4.668
	l8.004-16.213l8.004,16.213c1.246,2.517,3.644,4.267,6.426,4.668l17.903,2.603L472.17,93.615z"/>
<rect x="401.062" y="328.35" width="17.067" height="17.067"/>
<rect x="401.062" y="362.484" width="17.067" height="17.067"/>
<rect x="418.129" y="345.417" width="17.067" height="17.067"/>
<rect x="383.996" y="345.417" width="17.067" height="17.067"/>
<rect x="341.329" y="422.217" width="17.067" height="17.067"/>
<rect x="341.329" y="456.35" width="17.067" height="17.067"/>
<rect x="358.396" y="439.284" width="17.067" height="17.067"/>
<rect x="324.262" y="439.284" width="17.067" height="17.067"/>
<rect x="238.929" y="388.084" width="17.067" height="17.067"/>
<rect x="238.929" y="422.217" width="17.067" height="17.067"/>
<rect x="255.996" y="405.15" width="17.067" height="17.067"/>
<rect x="221.862" y="405.15" width="17.067" height="17.067"/>
<rect x="76.796" y="97.95" width="17.067" height="17.067"/>
<rect x="76.796" y="132.084" width="17.067" height="17.067"/>
<rect x="93.862" y="115.017" width="17.067" height="17.067"/>
<rect x="59.729" y="115.017" width="17.067" height="17.067"/>
<path d="M51.477,414.435l21.026-20.941l27.853-20.796l14.413,14.353l-28.186,28.066c-0.009,0.009-0.017,0.009-0.026,0.017
	l-21.419,21.333c-5.06,5.035-7.842,11.716-7.842,18.842c0,7.117,2.782,13.815,7.842,18.859c5.197,5.171,12.041,7.765,18.876,7.765
	s13.679-2.594,18.884-7.765l21.427-21.333l34.278-34.133c0.009-0.009,0.009-0.017,0.017-0.026l16.154-16l-0.06-0.06
	c0.102-0.102,0.247-0.137,0.35-0.247l82.654-90.53l55.535,7.902c0.401,0.06,0.802,0.085,1.203,0.085
	c1.033,0,2.031-0.247,2.995-0.614c0.282-0.102,0.529-0.239,0.794-0.375c0.307-0.154,0.631-0.239,0.922-0.435l51.413-34.133
	c0.188-0.128,0.29-0.333,0.469-0.469c0.205-0.162,0.461-0.23,0.649-0.41l20.343-19.055c10.581-9.916,12.041-26.163,3.388-37.786
	c-4.599-6.204-11.349-10.197-19.012-11.273c-7.697-1.092-15.292,0.93-21.436,5.632l-20.028,15.351l-0.009,0.009l-30.362,22.673
	l-21.726-8.653c38.741-17.382,65.818-56.132,65.818-101.12c0-61.167-49.963-110.933-111.377-110.933S125.922,88,125.922,149.167
	c0,22.17,6.63,42.786,17.92,60.134l-44.22-0.384c-0.026,0-0.051,0-0.077,0c-0.137,0-0.247,0.068-0.375,0.077
	c-0.845,0.034-1.673,0.205-2.483,0.495c-0.205,0.077-0.418,0.119-0.614,0.213c-0.102,0.043-0.205,0.051-0.307,0.102l-51.729,25.54
	c-0.009,0-0.017,0-0.017,0.009L13.726,249.92c-0.333,0.145-0.674,0.341-1.007,0.563c-12.075,8.038-16.188,23.825-9.574,36.727
	c3.524,6.861,9.523,11.913,16.896,14.225c2.842,0.887,5.743,1.323,8.627,1.323c4.634,0,9.225-1.135,13.431-3.379l22.204-11.81l0,0
	l36.224-18.705l21.709-0.128L35.17,355.384c-0.009,0.009-0.017,0.009-0.026,0.017l-21.419,21.333
	c-5.06,5.035-7.842,11.716-7.842,18.842c0,7.117,2.782,13.815,7.842,18.859c5.197,5.171,12.032,7.765,18.867,7.765
	C39.437,422.2,46.263,419.606,51.477,414.435z M90.858,462.068c-3.78,3.746-9.907,3.755-13.679,0.009
	c-1.818-1.818-2.816-4.215-2.816-6.767c0-2.543,0.998-4.941,2.816-6.741l15.403-15.343l6.443,6.409l7.185,7.151L90.858,462.068z
	 M118.302,434.744l-6.443-6.409l-7.185-7.151l28.211-28.083c0,0,0,0,0-0.009c0.009-0.009,0.017-0.009,0.026-0.017
	c0.64-0.64,1.041-1.408,1.434-2.167c0.111-0.222,0.324-0.41,0.418-0.64c0.265-0.657,0.307-1.365,0.41-2.057
	c0.051-0.393,0.222-0.759,0.222-1.161c0-0.572-0.205-1.126-0.324-1.69c-0.102-0.512-0.102-1.033-0.299-1.527
	c-0.324-0.802-0.879-1.51-1.459-2.202c-0.162-0.188-0.222-0.427-0.401-0.606c0,0,0,0-0.009,0c-0.009-0.009-0.009-0.026-0.017-0.034
	l-25.711-25.6c-0.273-0.273-0.623-0.384-0.93-0.614c-0.452-0.35-0.887-0.674-1.391-0.922c-0.486-0.239-0.981-0.384-1.493-0.521
	c-0.546-0.154-1.075-0.273-1.647-0.316c-0.521-0.034-1.007,0.017-1.527,0.077c-0.572,0.068-1.109,0.145-1.664,0.324
	c-0.538,0.171-1.015,0.435-1.51,0.717c-0.316,0.179-0.674,0.239-0.973,0.461l-28.373,21.18l-14.413-14.353l38.383-38.178
	l69.769,68.617l-14.839,14.703c-0.009,0.009-0.017,0.009-0.026,0.017L118.302,434.744z M365.376,234.441
	c2.483-1.911,5.615-2.688,8.687-2.287c3.089,0.435,5.82,2.048,7.68,4.548c3.465,4.668,2.876,11.179-1.365,15.155l-13.406,12.561
	l-14.899-19.78L365.376,234.441z M338.453,254.947l6.059,8.038l9.088,12.066l-33.28,22.101l-5.009-24.926L338.453,254.947z
	 M331.626,149.15c0,14.694-3.507,28.553-9.583,40.951l-66.901-30.387c-0.7-9.173-5.461-17.203-12.612-22.204l23.424-77.764
	C303.996,71.847,331.626,107.337,331.626,149.15z M238.306,161.95c0,7.057-5.786,12.8-12.894,12.8
	c-7.108,0-12.894-5.743-12.894-12.8s5.786-12.8,12.894-12.8C232.52,149.15,238.306,154.893,238.306,161.95z M237.316,55.284
	c4.045,0,8.004,0.341,11.921,0.836l-22.912,76.058c-0.307-0.009-0.597-0.094-0.913-0.094c-16.521,0-29.961,13.397-29.961,29.867
	s13.44,29.867,29.961,29.867c11.11,0,20.71-6.135,25.89-15.113l61.798,28.075c-17.195,23.142-44.715,38.238-75.785,38.238
	c-52.002,0-94.31-42.112-94.31-93.867S185.314,55.284,237.316,55.284z M34.086,284.318c-2.773,1.485-5.922,1.783-8.934,0.828
	c-2.987-0.93-5.41-2.97-6.827-5.726c-2.577-5.018-1.084-11.127,3.43-14.43l21.018-10.112l5.06,14.788l2.125,6.212L34.086,284.318z
	 M65.267,267.874l-4.087-11.947l-2.935-8.585l32.427-16.009l-0.631,23.74L65.267,267.874z M107.951,226.044l49.664,0.427
	c20.241,20.702,48.469,33.613,79.701,33.613c6.997,0,13.824-0.725,20.471-1.963c0.64,0.512,1.271,1.033,2.074,1.357l38.554,15.36
	l2.441,12.134l2.85,14.165l-48.043-6.835c-0.247-0.034-0.478,0.06-0.725,0.043c-0.623-0.034-1.22,0.009-1.843,0.111
	c-0.486,0.085-0.947,0.179-1.408,0.341c-0.546,0.188-1.041,0.444-1.545,0.751c-0.478,0.29-0.913,0.597-1.331,0.981
	c-0.205,0.179-0.452,0.265-0.64,0.469L173,379.328l-69.248-68.105l45.329-45.09c3.337-3.328,3.354-8.73,0.026-12.075
	c-1.681-1.681-3.891-2.509-6.101-2.5v-0.009l-35.499,0.213L107.951,226.044z M22.95,395.576c0-2.543,0.998-4.941,2.816-6.741
	L41.16,373.5L54.78,387.06l-15.343,15.275c-3.78,3.746-9.899,3.738-13.67,0.009C23.949,400.525,22.95,398.127,22.95,395.576z"/>
<path d="M134.515,302.75c0,2.27,0.896,4.446,2.509,6.05l34.278,34.133c1.664,1.655,3.849,2.483,6.025,2.483s4.361-0.828,6.016-2.483
	L217.63,308.8c1.604-1.604,2.517-3.78,2.517-6.05s-0.905-4.446-2.517-6.05l-34.287-34.133c-3.319-3.319-8.713-3.319-12.041,0
	L137.024,296.7C135.42,298.313,134.515,300.48,134.515,302.75z M177.327,280.657l22.195,22.093l-22.195,22.093L155.14,302.75
	L177.327,280.657z"/>
<path d="M298.304,132.084h17.067c0-32.273-26.65-47.445-40.747-50.953l-4.122,16.572C271.637,97.984,298.304,104.93,298.304,132.084
	z"/>
<rect x="298.304" y="149.15" width="17.067" height="17.067"/>
<g>
</g>
<g>
</g>
<g>
</g>
<g>
</g>
<g>
</g>
<g>
</g>
<g>
</g>
<g>
</g>
<g>
</g>
<g>
</g>
<g>
</g>
<g>
</g>
<g>
</g>
<g>
</g>
<g>
</g>
</svg>
