<svg id="Layer_1" height="512" viewBox="0 0 256 256" width="512" xmlns="http://www.w3.org/2000/svg"><g><g><g><path d="m245.92 197.85-8.32 14.42c-2.5 4.32-8.04 5.81-12.37 3.31l-5.36-3.1c-10.72 11.62-24.87 20.01-40.85 23.59v6.19c0 5-4.05 9.05-9.05 9.05h-16.65c-4.99 0-9.05-4.05-9.05-9.05v-6.19c-2.61-.58-5.17-1.29-7.67-2.13-2.95-.98-5.82-2.13-8.6-3.44 9.33-4.38 17.67-10.53 24.57-18.02l5.37 3.1c4.33 2.5 9.86 1.01 12.36-3.31l2.35-4.08c3.51-.78 6.86-1.91 10.01-3.34 22.86-10.39 35.34-36.84 27.02-61.96l.12-.21 3.72-6.44c2.5-4.33 1.02-9.87-3.31-12.37l-5.34-3.08c2.6-8.31 3.79-16.96 3.55-25.88 2.43 1.78 4.75 3.69 6.95 5.72 1.56 1.44 3.06 2.94 4.5 4.5l5.36-3.1c4.33-2.5 9.87-1.01 12.37 3.32l8.32 14.41c2.5 4.33 1.02 9.87-3.31 12.37l-5.34 3.08c4.77 15.32 4.78 31.84 0 47.19l5.34 3.09c4.33 2.49 5.81 8.03 3.31 12.36z" fill="#f0c020"/></g><g><path d="m182.66 204.85-6.29 10.91c-2.87 4.96-8.2 8.03-13.92 8.03-2.8 0-5.57-.74-8.01-2.15l-.68-.39c-5.18 4.94-10.92 9.19-17.16 12.69-2.95-.98-5.82-2.13-8.6-3.44 9.33-4.38 17.67-10.53 24.57-18.02l5.37 3.1c4.33 2.5 9.86 1.01 12.36-3.31l2.35-4.08c3.51-.78 6.86-1.91 10.01-3.34z" fill="#e8a61e"/></g><g><path d="m176.32 115.77c-5.7 14.44-17.86 25.63-32.92 29.99-.05.02-.1.04-.15.05-.61-2.28-1.36-4.5-2.27-6.64-2.01-4.8-4.75-9.22-8.08-13.12-1.52-1.78-3.16-3.46-4.9-5.01.04-.04.09-.08.13-.11 12.41-11.03 29.09-14.95 44.52-11.51v.01z" fill="#72c2e9"/></g><g><path d="m177.96 110.91c-1.73-.59-3.5-1.09-5.31-1.48v-.01c-15.43-3.44-32.11.48-44.52 11.51-.04.03-.09.07-.13.11-7.11 6.33-12.41 14.63-15.06 24.05-4.26 15.24-1.26 31.81 8.65 44.61 1.92 2.49 4.06 4.79 6.41 6.88-8.93 7.98-20.73 12.82-33.65 12.82-3.78 0-7.46-.41-11-1.21l-5.97-10.34c-2.5-4.33-1.02-9.87 3.31-12.36l5.33-3.09c-2.1-6.76-3.33-13.91-3.54-21.31-.24-8.98.97-17.62 3.54-25.88l-5.33-3.08c-4.33-2.5-5.81-8.04-3.31-12.37 5.81-10.06 3.11-5.38 5.96-10.33h.01l.01-.02 2.34-4.06c2.5-4.33 8.03-5.82 12.36-3.32l5.37 3.1c6.9-7.49 15.24-13.64 24.57-18.02 5.14-2.42 10.59-4.3 16.27-5.57v-6.19c0-5 4.06-9.05 9.05-9.05h15.99c9.98 12.9 12.88 29.49 8.65 44.61z" fill="#f0c020"/></g><g><path d="m82.48 161.09c-2.43-1.78-4.75-3.69-6.95-5.72-1.56-1.44-3.06-2.94-4.5-4.5l-5.37 3.1c-4.33 2.5-9.86 1.01-12.36-3.32l-1.3-2.25-4.72-8.17c6-15.21 19.52-27.26 36.06-30.8-2.85 4.95-.15.27-5.96 10.33-2.5 4.33-1.02 9.87 3.31 12.37l5.33 3.08c-2.57 8.26-3.78 16.9-3.54 25.88z" fill="#fc5d3d"/></g><g><path d="m213.52 136.24-3.84 6.65-4.48 7.76c-2.5 4.33-8.04 5.82-12.37 3.32l-5.36-3.1c-4.23 4.58-8.95 8.62-14.03 12.04h-.01c-8.17 5.5-17.28 9.43-26.81 11.55v6.19c0 5-4.05 9.05-9.05 9.05h-15.98c-9.91-12.8-12.91-29.37-8.65-44.61 2.21.76 4.48 1.35 6.77 1.79 7.81 1.49 15.95 1.13 23.54-1.07.05-.01.1-.03.15-.05 15.06-4.36 27.22-15.55 32.92-29.99.62-1.58 1.17-3.2 1.64-4.86 4.23-15.12 1.33-31.71-8.65-44.61-18.28-23.68-52.22-26.01-73.59-7-2.34 2.08-4.53 4.41-6.53 7h-3.16c-5 0-9.05 4.05-9.05 9.05v6.19c-9.82 2.21-18.96 6.26-26.82 11.55.15-2.99.47-5.94.96-8.84.58-3.64 1.43-7.2 2.51-10.65l-5.34-3.09c-4.33-2.49-5.81-8.03-3.31-12.36l8.32-14.42c2.5-4.32 8.03-5.81 12.36-3.31l5.37 3.1c10.72-11.62 24.87-20.01 40.85-23.59v-6.19c0-5 4.05-9.05 9.05-9.05h16.64c5 0 9.05 4.05 9.05 9.05v6.19c15.98 3.58 30.13 11.97 40.85 23.59l5.36-3.1c4.33-2.5 9.87-1.01 12.37 3.31l8.32 14.42c2.5 4.33 1.02 9.87-3.31 12.36l-5.34 3.09c2.11 6.76 3.34 13.91 3.55 21.31.24 8.92-.95 17.57-3.55 25.88l5.34 3.08c4.33 2.5 5.81 8.04 3.31 12.37z" fill="#fc5d3d"/></g><g><path d="m178.62 197.85-5.97 10.34-2.35 4.08c-2.5 4.32-8.03 5.81-12.36 3.31l-5.37-3.1c-6.9 7.49-15.24 13.64-24.57 18.02-5.14 2.42-10.59 4.3-16.27 5.57v6.19c0 5-4.06 9.05-9.05 9.05h-16.65c-5 0-9.05-4.05-9.05-9.05v-6.19c-15.98-3.58-30.13-11.97-40.85-23.59l-5.36 3.1c-4.33 2.5-9.87 1.01-12.37-3.31l-8.32-14.42c-2.5-4.33-1.02-9.87 3.31-12.36l5.34-3.09c-4.77-15.32-4.78-31.84 0-47.19l-5.34-3.08c-4.33-2.5-5.81-8.04-3.31-12.37l8.32-14.41c2.5-4.33 8.04-5.82 12.37-3.32l5.36 3.1c4.21-4.64 9.36-8.9 14.02-12.03 0-.01 0-.01.01-.01 7.86-5.29 17-9.34 26.82-11.55v-6.19c0-5 4.05-9.05 9.05-9.05h16.65c4.99 0 9.05 4.05 9.05 9.05v6.19c2.61.58 5.17 1.29 7.67 2.13 2.95.98 5.82 2.13 8.6 3.44-9.33 4.38-17.67 10.53-24.57 18.02l-5.37-3.1c-4.33-2.5-9.86-1.01-12.36 3.32l-2.34 4.06-.01.02h-.01c-3.48.75-6.83 1.87-10 3.32-11.9 5.44-21.32 15.47-26.06 27.48-11.44 28.98 5.87 61.28 36.07 67.96 3.54.8 7.22 1.21 11 1.21 12.85 0 24.6-4.79 33.51-12.7.05-.04.09-.08.14-.12 2.35-2.09 4.49-4.39 6.41-6.88h3.16c5 0 9.05-4.05 9.05-9.05v-6.19c9.53-2.12 18.64-6.05 26.81-11.55h.01c-.15 2.99-.47 5.94-.95 8.84-.59 3.64-1.44 7.2-2.51 10.65l5.33 3.09c4.33 2.49 5.81 8.03 3.31 12.36z" fill="#72c2e9"/></g></g><g><path d="m69.98 75.35v.78c-6.56 1.94-12.95 4.69-18.86 8.12-.49 2.9-.81 5.85-.96 8.84 7.86-5.29 17-9.34 26.82-11.55v-6.19c0-5 4.05-9.05 9.05-9.05h3.16c2-2.59 4.19-4.92 6.53-7h-9.69c-8.85 0-16.05 7.2-16.05 16.05zm10.71 56.78c-4.33-2.5-5.81-8.04-3.31-12.37 5.81-10.06 3.11-5.38 5.96-10.33-16.54 3.54-30.06 15.59-36.06 30.8l4.72 8.17c.47-1.89 1.06-3.76 1.79-5.6 3.14-7.95 8.59-14.76 15.41-19.6-.12 1.74.05 3.51.51 5.24 1.11 4.14 3.77 7.61 7.48 9.75l.65.38c-1.32 5.48-2.09 11.1-2.31 16.8 2.2 2.03 4.52 3.94 6.95 5.72-.24-8.98.97-17.62 3.54-25.88z" fill="#b34f33"/></g><g><path d="m177.96 110.91c-1.73-.59-3.5-1.09-5.31-1.48v-.01c-.49-.11-.98-.21-1.47-.3-15.01-2.88-31.03 1.13-43.05 11.81-.04.03-.09.07-.13.11-7.11 6.33-12.41 14.63-15.06 24.05-4.26 15.24-1.26 31.81 8.65 44.61.49.64 1 1.26 1.51 1.87 1.52 1.78 3.15 3.45 4.9 5.01-8.93 7.98-20.73 12.82-33.65 12.82-3.78 0-7.46-.41-11-1.21l-5.13-8.88-.84-1.46c-2.5-4.33-1.02-9.87 3.31-12.36l5.33-3.09c-2.1-6.76-3.33-13.91-3.54-21.31-.24-8.98.97-17.62 3.54-25.88l-5.33-3.08c-4.33-2.5-5.81-8.04-3.31-12.37 5.81-10.06 3.11-5.38 5.96-10.33h.01l.01-.02 2.34-4.06c2.5-4.33 8.03-5.82 12.36-3.32l5.37 3.1c6.9-7.49 15.24-13.64 24.57-18.02 5.14-2.42 10.59-4.3 16.27-5.57v-6.19c0-5 4.06-9.05 9.05-9.05h15.99c9.98 12.9 12.88 29.49 8.65 44.61z" fill="#f0c020"/></g><g><path d="m128 196.58c-8.93 7.98-20.73 12.82-33.65 12.82-3.78 0-7.46-.41-11-1.21l-5.13-8.88c2.14.85 4.36 1.54 6.64 2.04 3.08.7 6.26 1.05 9.49 1.05 10.62 0 20.83-3.84 28.75-10.83 1.52 1.78 3.15 3.45 4.9 5.01z" fill="#e8a61e"/></g><g><path d="m160 66.3c1.34 1.33 2.6 2.76 3.77 4.28 8.37 10.82 11.16 25.19 7.45 38.42-.01.04-.02.08-.04.12.49.09.98.19 1.47.3v.01c1.81.39 3.58.89 5.31 1.48 4.23-15.12 1.33-31.71-8.65-44.61z" fill="#e8a61e"/></g><g><path d="m213.52 136.24-3.84 6.65-4.48 7.76c-2.5 4.33-8.04 5.82-12.37 3.32l-5.36-3.1c-4.23 4.58-8.95 8.62-14.03 12.04h-.01c-8.17 5.5-17.28 9.43-26.81 11.55v6.19c0 5-4.05 9.05-9.05 9.05h-15.98c-9.91-12.8-12.91-29.37-8.65-44.61 2.21.76 4.48 1.35 6.77 1.79 7.81 1.49 15.95 1.13 23.54-1.07.05-.01.1-.03.15-.05 15.06-4.36 27.22-15.55 32.92-29.99.62-1.58 1.17-3.2 1.64-4.86 4.23-15.12 1.33-31.71-8.65-44.61-18.28-23.68-52.22-26.01-73.59-7-2.34 2.08-4.53 4.41-6.53 7h-3.16c-5 0-9.05 4.05-9.05 9.05v6.19c-9.82 2.21-18.96 6.26-26.82 11.55.15-2.99.47-5.94.96-8.84.58-3.64 1.43-7.2 2.51-10.65l-5.34-3.09c-4.33-2.49-5.81-8.03-3.31-12.36l8.32-14.42c2.5-4.32 8.03-5.81 12.36-3.31l5.37 3.1c10.72-11.62 24.87-20.01 40.85-23.59v-6.19c0-5 4.05-9.05 9.05-9.05h16.64c5 0 9.05 4.05 9.05 9.05v6.19c15.98 3.58 30.13 11.97 40.85 23.59l5.36-3.1c4.33-2.5 9.87-1.01 12.37 3.31l8.32 14.42c2.5 4.33 1.02 9.87-3.31 12.36l-5.34 3.09c2.11 6.76 3.34 13.91 3.55 21.31.24 8.92-.95 17.57-3.55 25.88l5.34 3.08c4.33 2.5 5.81 8.04 3.31 12.37z" fill="#fc5d3d"/></g><g><path d="m132.9 126.05c7.93-6.99 18.13-10.84 28.75-10.84 2.36 0 4.72.19 7.04.57-6.92 14.636-21.368 22.484-27.71 23.39.91 2.14 1.66 4.36 2.27 6.64.05-.01.1-.03.15-.05 15.06-4.36 27.22-15.55 32.92-29.99l-3.67-6.34v-.01c-15.43-3.44-32.11.48-44.52 11.51-.04.03-.09.07-.13.11 1.74 1.55 3.38 3.23 4.9 5.01zm13.72 48.41v6.19c0 5-4.05 9.05-9.05 9.05h-3.16c-1.92 2.49-4.06 4.79-6.41 6.88-.05.04-.09.08-.14.12h9.71c8.85 0 16.05-7.2 16.05-16.05v-.77c6.59-1.93 12.9-4.65 18.87-8.13.48-2.9.8-5.85.95-8.84h-.01c-8.17 5.5-17.28 9.43-26.81 11.55zm-27.22-90.79c-6.24 3.5-11.98 7.75-17.16 12.69l-.68-.39c-2.44-1.41-5.21-2.15-8.01-2.15-5.72 0-11.05 3.08-13.91 8.03l-2.19 3.8c-.06.1-.12.19-.18.29l-3.93 6.81c3.17-1.45 6.52-2.57 10-3.32h.01l.01-.02 2.34-4.06c2.5-4.33 8.03-5.82 12.36-3.32l5.37 3.1c6.9-7.49 15.24-13.64 24.57-18.02-2.78-1.31-5.65-2.46-8.6-3.44z" fill="#4ba5c8"/></g><g><path d="m130.91 189.7h-9.32c-9.91-12.8-12.91-29.37-8.65-44.61 2.21.76 4.48 1.35 6.77 1.79-.01.04-.02.07-.03.11-4.299 15.354.175 31.783 11.23 42.71z" fill="#b34f33"/></g></g><g><g><path d="m213.52 136.24-3.84 6.65-4.48 7.76c-2.5 4.33-8.04 5.82-12.37 3.32l-5.36-3.1c-4.23 4.58-8.95 8.62-14.03 12.04h-.01c-8.17 5.5-17.28 9.43-26.81 11.55v6.19c0 5-4.05 9.05-9.05 9.05h-15.98c-9.91-12.8-12.91-29.37-8.65-44.61 2.21.76 4.48 1.35 6.77 1.79 7.81 1.49 15.95 1.13 23.54-1.07.05-.01.1-.03.15-.05 15.06-4.36 27.22-15.55 32.92-29.99.62-1.58 1.17-3.2 1.64-4.86 4.23-15.12 1.33-31.71-8.65-44.61-18.28-23.68-52.22-26.01-73.59-7-2.34 2.08-4.53 4.41-6.53 7h-3.16c-5 0-9.05 4.05-9.05 9.05v6.19c-9.82 2.21-18.96 6.26-26.82 11.55.15-2.99.47-5.94.96-8.84.58-3.64 1.43-7.2 2.51-10.65l-5.34-3.09c-4.33-2.49-5.81-8.03-3.31-12.36l8.32-14.42c2.5-4.32 8.03-5.81 12.36-3.31l5.37 3.1c10.72-11.62 24.87-20.01 40.85-23.59v-6.19c0-5 4.05-9.05 9.05-9.05h16.64c5 0 9.05 4.05 9.05 9.05v6.19c15.98 3.58 30.13 11.97 40.85 23.59l5.36-3.1c4.33-2.5 9.87-1.01 12.37 3.31l8.32 14.42c2.5 4.33 1.02 9.87-3.31 12.36l-5.34 3.09c2.11 6.76 3.34 13.91 3.55 21.31.24 8.92-.95 17.57-3.55 25.88l5.34 3.08c4.33 2.5 5.81 8.04 3.31 12.37z" fill="#fc5d3d"/></g><g><g><path d="m245.92 197.85-8.32 14.42c-2.5 4.32-8.04 5.81-12.37 3.31l-5.36-3.1c-10.72 11.62-24.87 20.01-40.85 23.59v6.19c0 5-4.05 9.05-9.05 9.05h-16.65c-4.99 0-9.05-4.05-9.05-9.05v-6.19c-2.61-.58-5.17-1.29-7.67-2.13-2.95-.98-5.82-2.13-8.6-3.44 9.33-4.38 17.67-10.53 24.57-18.02l5.37 3.1c4.33 2.5 9.86 1.01 12.36-3.31l2.35-4.08c3.51-.78 6.86-1.91 10.01-3.34 19.81-9 31.82-30.07 29.26-51.87-.39-3.38-1.12-6.74-2.24-10.09.19-.33 3.65-6.32 3.84-6.65 2.5-4.33 1.02-9.87-3.31-12.37l-5.34-3.08c2.6-8.31 3.79-16.96 3.55-25.88 2.43 1.78 4.75 3.69 6.95 5.72 1.56 1.44 3.06 2.94 4.5 4.5l5.36-3.1c4.33-2.5 9.87-1.01 12.37 3.32l8.32 14.41c2.5 4.33 1.02 9.87-3.31 12.37l-5.34 3.08c4.77 15.32 4.78 31.84 0 47.19l5.34 3.09c4.33 2.49 5.81 8.03 3.31 12.36z" fill="#f0c020"/></g><g><path d="m182.66 204.85-6.29 10.91c-2.87 4.96-8.2 8.03-13.92 8.03-2.8 0-5.57-.74-8.01-2.15l-.68-.39c-5.18 4.94-10.92 9.19-17.16 12.69-2.95-.98-5.82-2.13-8.6-3.44 9.33-4.38 17.67-10.53 24.57-18.02l5.37 3.1c4.33 2.5 9.86 1.01 12.36-3.31l2.35-4.08c3.51-.78 6.86-1.91 10.01-3.34z" fill="#e8a61e"/></g><g><path d="m176.32 115.77c-5.7 14.44-17.86 25.63-32.92 29.99-.05.02-.1.04-.15.05-.61-2.28-1.36-4.5-2.27-6.64-2.01-4.8-4.75-9.22-8.08-13.12-1.52-1.78-3.16-3.46-4.9-5.01.04-.04.09-.08.13-.11 12.41-11.03 29.09-14.95 44.52-11.51v.01z" fill="#72c2e9"/></g><g><path d="m177.96 110.91c-1.73-.59-3.5-1.09-5.31-1.48v-.01c-15.43-3.44-32.11.48-44.52 11.51-.04.03-.09.07-.13.11-7.11 6.33-12.41 14.63-15.06 24.05-4.26 15.24-1.26 31.81 8.65 44.61 1.92 2.49 4.06 4.79 6.41 6.88-8.93 7.98-20.73 12.82-33.65 12.82-3.78 0-7.46-.41-11-1.21l-5.97-10.34c-2.5-4.33-1.02-9.87 3.31-12.36l5.33-3.09c-2.1-6.76-3.33-13.91-3.54-21.31-.24-8.98.97-17.62 3.54-25.88l-5.33-3.08c-4.33-2.5-5.81-8.04-3.31-12.37 5.81-10.06 3.11-5.38 5.96-10.33h.01l.01-.02 2.34-4.06c2.5-4.33 8.03-5.82 12.36-3.32l5.37 3.1c6.9-7.49 15.24-13.64 24.57-18.02 5.14-2.42 10.59-4.3 16.27-5.57v-6.19c0-5 4.06-9.05 9.05-9.05h15.99c9.98 12.9 12.88 29.49 8.65 44.61z" fill="#f0c020"/></g><g><path d="m82.48 161.09c-2.43-1.78-4.75-3.69-6.95-5.72-1.56-1.44-3.06-2.94-4.5-4.5l-5.37 3.1c-4.33 2.5-9.86 1.01-12.36-3.32l-1.3-2.25-4.72-8.17c6-15.21 19.52-27.26 36.06-30.8-2.85 4.95-.15.27-5.96 10.33-2.5 4.33-1.02 9.87 3.31 12.37l5.33 3.08c-2.57 8.26-3.78 16.9-3.54 25.88z" fill="#fc5d3d"/></g><g><path d="m213.52 136.24-3.84 6.65-4.48 7.76c-2.5 4.33-8.04 5.82-12.37 3.32l-5.36-3.1c-4.23 4.58-8.95 8.62-14.03 12.04h-.01c-8.17 5.5-17.28 9.43-26.81 11.55v6.19c0 5-4.05 9.05-9.05 9.05h-15.98c-9.91-12.8-12.91-29.37-8.65-44.61 2.21.76 4.48 1.35 6.77 1.79 7.81 1.49 15.95 1.13 23.54-1.07.05-.01.1-.03.15-.05 15.06-4.36 27.22-15.55 32.92-29.99.62-1.58 1.17-3.2 1.64-4.86 4.23-15.12 1.33-31.71-8.65-44.61-18.28-23.68-52.22-26.01-73.59-7-2.34 2.08-4.53 4.41-6.53 7h-3.16c-5 0-9.05 4.05-9.05 9.05v6.19c-9.82 2.21-18.96 6.26-26.82 11.55.15-2.99.47-5.94.96-8.84.58-3.64 1.43-7.2 2.51-10.65l-5.34-3.09c-4.33-2.49-5.81-8.03-3.31-12.36l8.32-14.42c2.5-4.32 8.03-5.81 12.36-3.31l5.37 3.1c10.72-11.62 24.87-20.01 40.85-23.59v-6.19c0-5 4.05-9.05 9.05-9.05h16.64c5 0 9.05 4.05 9.05 9.05v6.19c15.98 3.58 30.13 11.97 40.85 23.59l5.36-3.1c4.33-2.5 9.87-1.01 12.37 3.31l8.32 14.42c2.5 4.33 1.02 9.87-3.31 12.36l-5.34 3.09c2.11 6.76 3.34 13.91 3.55 21.31.24 8.92-.95 17.57-3.55 25.88l5.34 3.08c4.33 2.5 5.81 8.04 3.31 12.37z" fill="#fc5d3d"/></g><g><path d="m178.62 197.85-5.97 10.34-2.35 4.08c-2.5 4.32-8.03 5.81-12.36 3.31l-5.37-3.1c-6.9 7.49-15.24 13.64-24.57 18.02-5.14 2.42-10.59 4.3-16.27 5.57v6.19c0 5-4.06 9.05-9.05 9.05h-16.65c-5 0-9.05-4.05-9.05-9.05v-6.19c-15.98-3.58-30.13-11.97-40.85-23.59l-5.36 3.1c-4.33 2.5-9.87 1.01-12.37-3.31l-8.32-14.42c-2.5-4.33-1.02-9.87 3.31-12.36l5.34-3.09c-4.77-15.32-4.78-31.84 0-47.19l-5.34-3.08c-4.33-2.5-5.81-8.04-3.31-12.37l8.32-14.41c2.5-4.33 8.04-5.82 12.37-3.32l5.36 3.1c4.21-4.64 9.36-8.9 14.02-12.03 0-.01 0-.01.01-.01 7.86-5.29 17-9.34 26.82-11.55v-6.19c0-5 4.05-9.05 9.05-9.05h16.65c4.99 0 9.05 4.05 9.05 9.05v6.19c2.61.58 5.17 1.29 7.67 2.13 2.95.98 5.82 2.13 8.6 3.44-9.33 4.38-17.67 10.53-24.57 18.02l-5.37-3.1c-4.33-2.5-9.86-1.01-12.36 3.32l-2.34 4.06-.01.02h-.01c-3.48.75-6.83 1.87-10 3.32-11.9 5.44-21.32 15.47-26.06 27.48-11.44 28.98 5.87 61.28 36.07 67.96 3.54.8 7.22 1.21 11 1.21 12.85 0 24.6-4.79 33.51-12.7.05-.04.09-.08.14-.12 2.35-2.09 4.49-4.39 6.41-6.88h3.16c5 0 9.05-4.05 9.05-9.05v-6.19c9.53-2.12 18.64-6.05 26.81-11.55h.01c-.15 2.99-.47 5.94-.95 8.84-.59 3.64-1.44 7.2-2.51 10.65l5.33 3.09c4.33 2.49 5.81 8.03 3.31 12.36z" fill="#72c2e9"/></g></g><g><path d="m69.98 75.35v.78c-6.56 1.94-12.95 4.69-18.86 8.12-.49 2.9-.81 5.85-.96 8.84 7.86-5.29 17-9.34 26.82-11.55v-6.19c0-5 4.05-9.05 9.05-9.05h3.16c2-2.59 4.19-4.92 6.53-7h-9.69c-8.85 0-16.05 7.2-16.05 16.05zm10.71 56.78c-4.33-2.5-5.81-8.04-3.31-12.37 5.81-10.06 3.11-5.38 5.96-10.33-16.54 3.54-30.06 15.59-36.06 30.8l4.72 8.17c.47-1.89 1.06-3.76 1.79-5.6 3.14-7.95 8.59-14.76 15.41-19.6-.12 1.74.05 3.51.51 5.24 1.11 4.14 3.77 7.61 7.48 9.75l.65.38c-1.32 5.48-2.09 11.1-2.31 16.8 2.2 2.03 4.52 3.94 6.95 5.72-.24-8.98.97-17.62 3.54-25.88z" fill="#b34f33"/></g><g><path d="m177.96 110.91c-1.73-.59-3.5-1.09-5.31-1.48v-.01c-.49-.11-.98-.21-1.47-.3-15.01-2.88-31.03 1.13-43.05 11.81-.04.03-.09.07-.13.11-7.11 6.33-12.41 14.63-15.06 24.05-4.26 15.24-1.26 31.81 8.65 44.61.49.64 1 1.26 1.51 1.87 1.52 1.78 3.15 3.45 4.9 5.01-8.93 7.98-20.73 12.82-33.65 12.82-3.78 0-7.46-.41-11-1.21l-5.13-8.88-.84-1.46c-2.5-4.33-1.02-9.87 3.31-12.36l5.33-3.09c-2.1-6.76-3.33-13.91-3.54-21.31-.24-8.98.97-17.62 3.54-25.88l-5.33-3.08c-4.33-2.5-5.81-8.04-3.31-12.37 5.81-10.06 3.11-5.38 5.96-10.33h.01l.01-.02 2.34-4.06c2.5-4.33 8.03-5.82 12.36-3.32l5.37 3.1c6.9-7.49 15.24-13.64 24.57-18.02 5.14-2.42 10.59-4.3 16.27-5.57v-6.19c0-5 4.06-9.05 9.05-9.05h15.99c9.98 12.9 12.88 29.49 8.65 44.61z" fill="#f0c020"/></g><g><path d="m128 196.58c-8.93 7.98-20.73 12.82-33.65 12.82-3.78 0-7.46-.41-11-1.21l-5.13-8.88c2.14.85 4.36 1.54 6.64 2.04 3.08.7 6.26 1.05 9.49 1.05 10.62 0 20.83-3.84 28.75-10.83 1.52 1.78 3.15 3.45 4.9 5.01z" fill="#e8a61e"/></g><g><g><path d="m160 66.3c1.34 1.33 2.6 2.76 3.77 4.28 8.37 10.82 11.16 25.19 7.45 38.42-.01.04-.02.08-.04.12.49.09.98.19 1.47.3v.01c1.81.39 3.58.89 5.31 1.48 4.23-15.12 1.33-31.71-8.65-44.61z" fill="#e8a61e"/></g><g><path d="m219.58 139.74-7.66 13.24c-.39-3.38-1.12-6.74-2.24-10.09.19-.33 3.65-6.32 3.84-6.65 2.5-4.33 1.02-9.87-3.31-12.37l-5.34-3.08c2.6-8.31 3.79-16.96 3.55-25.88 2.43 1.78 4.75 3.69 6.95 5.72-.21 5.71-.99 11.33-2.31 16.8l.65.38c3.71 2.14 6.37 5.61 7.48 9.75s.54 8.47-1.61 12.18z" fill="#e8a61e"/></g></g><g><path d="m132.9 126.05c7.93-6.99 18.13-10.84 28.75-10.84 2.36 0 4.72.19 7.04.57-6.92 14.636-21.368 22.484-27.71 23.39.91 2.14 1.66 4.36 2.27 6.64.05-.01.1-.03.15-.05 15.06-4.36 27.22-15.55 32.92-29.99l-3.67-6.34v-.01c-15.43-3.44-32.11.48-44.52 11.51-.04.03-.09.07-.13.11 1.74 1.55 3.38 3.23 4.9 5.01zm13.72 48.41v6.19c0 5-4.05 9.05-9.05 9.05h-3.16c-1.92 2.49-4.06 4.79-6.41 6.88-.05.04-.09.08-.14.12h9.71c8.85 0 16.05-7.2 16.05-16.05v-.77c6.59-1.93 12.9-4.65 18.87-8.13.48-2.9.8-5.85.95-8.84h-.01c-8.17 5.5-17.28 9.43-26.81 11.55zm-27.22-90.79c-6.24 3.5-11.98 7.75-17.16 12.69l-.68-.39c-2.44-1.41-5.21-2.15-8.01-2.15-5.72 0-11.05 3.08-13.91 8.03l-2.19 3.8c-.06.1-.12.19-.18.29l-3.93 6.81c3.17-1.45 6.52-2.57 10-3.32h.01l.01-.02 2.34-4.06c2.5-4.33 8.03-5.82 12.36-3.32l5.37 3.1c6.9-7.49 15.24-13.64 24.57-18.02-2.78-1.31-5.65-2.46-8.6-3.44z" fill="#4ba5c8"/></g><g><path d="m130.91 189.7h-9.32c-9.91-12.8-12.91-29.37-8.65-44.61 2.21.76 4.48 1.35 6.77 1.79-.01.04-.02.07-.03.11-4.299 15.354.175 31.783 11.23 42.71z" fill="#b34f33"/></g></g><path d="m129.259 159.281c-1.381 0-2.5-1.119-2.5-2.5s1.119-2.5 2.5-2.5c1.409 0 2.833-.053 4.233-.157 1.357-.09 2.577.93 2.679 2.308.103 1.377-.931 2.576-2.308 2.679-1.523.112-3.072.17-4.604.17zm11.854-3.64c-.332-1.34.485-2.696 1.825-3.028 24.823-6.15 43.382-28.537 43.382-55.325 0-31.074-24.925-57.191-57.04-57.191-14.028 0-27.481 5.095-37.88 14.345-1.033.918-2.613.825-3.529-.206-.918-1.032-.826-2.612.206-3.529 11.315-10.066 25.949-15.61 41.204-15.61 34.873 0 62.04 28.339 62.04 62.191 0 29.137-20.185 53.49-47.179 60.178-1.347.333-2.698-.489-3.029-1.825z" fill="#ffcbc3"/><path d="m94.35 220.9c-34.889 0-62.118-28.493-62.118-62.027 0-24.283 14.258-46.492 36.325-56.58 1.257-.576 2.739-.022 3.313 1.234s.021 2.739-1.234 3.313c-20.292 9.277-33.404 29.701-33.404 52.033 0 30.788 25.007 57.027 57.118 57.027 10.386 0 20.555-2.823 29.409-8.165 1.181-.713 2.719-.333 3.432.849s.333 2.719-.849 3.432c-9.634 5.812-20.696 8.884-31.992 8.884zm36.895-15.248c-.896-1.05-.771-2.628.279-3.524.269-.229.535-.46.8-.695 1.033-.916 2.613-.819 3.529.215.915 1.034.818 2.614-.215 3.529-.288.254-.578.506-.868.754-1.053.898-2.629.77-3.525-.279z" fill="#c5e5ff"/><path d="m110.913 194.6c-.667-.945-1.317-1.923-1.932-2.909-.731-1.171-.374-2.713.798-3.444 1.172-.73 2.714-.374 3.444.798.564.905 1.161 1.803 1.774 2.669.796 1.128.528 2.688-.599 3.485-1.128.796-2.688.528-3.485-.599zm-6.675-12.175c-3.092-7.55-4.66-15.527-4.66-23.708 0-35.83 30.325-63.806 65.328-61.923 1.378.074 2.436 1.252 2.361 2.631-.074 1.378-1.242 2.438-2.631 2.362-32.058-1.738-60.059 23.881-60.059 56.93 0 7.528 1.442 14.867 4.287 21.813.523 1.278-.088 2.738-1.366 3.261-1.276.523-2.737-.087-3.26-1.366z" fill="#f8e5b0"/><path d="m207.859 179.55c-1.21-.62-2.76-.11-3.369 1.09v.01c-.62 1.22-.131 2.73 1.09 3.35 1.219.609 2.723.163 3.359-1.08 0 0 .011 0 .011-.01.619-1.23.13-2.74-1.091-3.36z"/><path d="m137.569 2.19h-16.64c-6.37 0-11.55 5.18-11.55 11.55v4.21c-14.759 3.7-28.179 11.45-38.809 22.42l-3.66-2.12c-5.518-3.185-12.584-1.266-15.78 4.23l-8.32 14.42c-3.222 5.582-1.234 12.627 4.23 15.78l3.63 2.1c-1.539 5.35-2.534 11.077-2.928 16.947-4.306 3.003-8.561 6.602-12.082 10.243l-3.64-2.1c-5.469-3.188-12.602-1.303-15.78 4.23l-8.32 14.41c-3.218 5.521-1.284 12.604 4.22 15.78l3.63 2.1c-1.29 4.52-2.19 9.2-2.68 13.91-.145 1.373.845 2.595 2.23 2.74 1.37.14 2.6-.86 2.74-2.23.53-5.04 1.56-10.04 3.06-14.86.35-1.12-.12-2.32-1.14-2.91l-5.34-3.08c-3.029-1.74-4.257-5.717-2.4-8.95l8.32-14.41c1.785-3.082 5.783-4.234 8.96-2.41l5.36 3.1c.99.58 2.33.37 3.1-.48 9.918-10.929 24.001-19.328 39.55-22.83 1.15-.26 1.95-1.26 1.95-2.44v-6.19c.01-3.61 2.95-6.54 6.55-6.55h16.65c3.61.01 6.54 2.94 6.55 6.55v6.19c0 1.16.82 2.19 1.96 2.44 3.774.839 7.452 1.969 10.93 3.33-7.121 3.943-13.689 9.024-19.15 14.67l-3.66-2.11c-5.478-3.193-12.599-1.292-15.77 4.23l-1.81 3.13c-22.764 5.428-40.5 26.442-40.5 51.54 0 28.752 23.221 53.13 53.12 53.13h.01c16.18 0 31.298-7.373 41.26-19.7h1.949c6.37 0 11.551-5.18 11.551-11.55v-4.21c7.532-1.881 14.961-4.964 21.42-8.76-.577 4.967-1.591 9.607-2.95 13.98-.34 1.1.14 2.32 1.14 2.9l5.33 3.09c3.261 1.886 4.139 5.956 2.391 8.95-.427.74-7.894 13.68-8.32 14.42-1.769 3.081-5.795 4.227-8.94 2.39l-5.37-3.1c-.967-.553-2.308-.372-3.09.48-10.844 11.758-24.763 19.545-39.55 22.84-1.15.26-1.95 1.26-1.95 2.44v6.19c-.01 3.6-2.94 6.54-6.55 6.55h-16.651c-3.61-.01-6.54-2.95-6.55-6.55v-6.19c0-1.16-.82-2.19-1.95-2.44-15.24-3.41-28.92-11.31-39.56-22.84-.77-.84-2.11-1.04-3.09-.47l-5.36 3.1c-3.166 1.818-7.166.682-8.96-2.4l-8.31-14.42c-1.884-3.223-.63-7.221 2.39-8.94l5.34-3.1c1.02-.59 1.49-1.78 1.14-2.9-1.17-3.75-2.05-7.63-2.64-11.53-.19-1.34-1.49-2.3-2.84-2.1-1.36.2-2.3 1.47-2.1 2.84.52 3.48 1.27 6.96 2.23 10.35l-3.63 2.11c-5.436 3.106-7.47 10.162-4.22 15.77l8.31 14.42c3.203 5.51 10.309 7.414 15.79 4.22l3.65-2.11c10.63 10.98 24.05 18.72 38.81 22.42v4.21c0 6.37 5.18 11.55 11.55 11.55h16.65c6.37 0 11.55-5.19 11.55-11.55v-4.21c4.718-1.184 9.333-2.806 13.751-4.813 4.445 2.017 9.089 3.644 13.788 4.813v4.21c0 6.37 5.181 11.55 11.55 11.55h16.65c6.37 0 11.55-5.18 11.55-11.55v-4.21c14.761-3.7 28.181-11.44 38.811-22.42l3.649 2.11c1.75 1.02 3.74 1.55 5.761 1.55h.02c4.11 0 7.94-2.21 10-5.77l8.32-14.42c1.02-1.76 1.55-3.75 1.55-5.77.01-4.12-2.21-7.95-5.771-10.01l-3.63-2.1c4.108-14.444 4.213-30.016 0-44.83l3.63-2.09c5.568-3.228 7.387-10.355 4.221-15.79l-8.32-14.41c-3.173-5.5-10.259-7.427-15.78-4.24l-3.649 2.12c-1.061-1.1-2.16-2.17-3.271-3.19-1.965-1.808-4.047-3.542-6.193-5.168-.274-6.388-1.288-12.73-3.037-18.842l3.63-2.11c5.551-3.187 7.394-10.296 4.22-15.77l-8.31-14.42c-3.25-5.589-10.354-7.368-15.79-4.23l-3.65 2.12c-10.63-10.98-24.05-18.73-38.81-22.42v-4.21c0-6.37-5.181-11.55-11.551-11.55zm-40.759 102 5.37 3.1c.98.57 2.32.37 3.09-.47 10.539-11.444 24.395-19.459 39.54-22.84 1.141-.25 1.96-1.28 1.96-2.44v-6.19c.011-3.6 2.95-6.54 6.55-6.55h14.73c8.039 10.924 11.23 24.956 8.11 38.935-33.014-9.668-67.6 15.307-67.6 51.076 0 13.598 5.15 27.132 15.673 37.663-8.566 6.817-19.101 10.427-29.884 10.427-3.261 0-6.336-.327-9.404-.945l-5.395-9.356c-.59-1.01-.89-2.11-.89-3.27.01-2.34 1.26-4.52 3.28-5.67l5.33-3.1c1.02-.58 1.49-1.78 1.14-2.9-4.757-15.277-4.468-31.37 0-45.71.35-1.12-.12-2.32-1.14-2.9l-5.33-3.09c-3.029-1.74-4.257-5.716-2.4-8.95 3.139-5.426 8.031-13.892 8.33-14.41 1.764-3.071 5.756-4.238 8.94-2.41zm31.172 20.288c5.599 5.488 9.606 11.775 12.119 19.562-7.623 1.758-15.849 1.715-24.024-.609 2.412-7.159 6.481-13.64 11.905-18.953zm16.942 18.167c-2.661-8.351-7.143-15.478-13.158-21.498 11.317-9.018 25.789-12.182 39.277-9.51l2.484 4.302c-5.445 12.856-16.088 22.398-28.603 26.706zm-64.924 13.325c-2.832-2.381-5.087-4.582-7.13-6.8-.753-.818-2.01-1.067-3.09-.47l-5.37 3.1c-3.155 1.843-7.171.679-8.94-2.4l-5.399-9.341c5.242-12.376 15.706-22.145 28.014-26.523-1.314 2.279-2.325 3.898-3.048 5.316-3.127 6.138-.549 12.578 4.403 15.448l3.62 2.09c-1.75 6.162-2.83 12.922-3.06 19.58zm-33.77 2.8c0-4.213.568-8.384 1.675-12.46l3.235 5.59c3.172 5.523 10.269 7.416 15.77 4.24l3.66-2.12c2.852 2.933 5.711 5.517 9.463 8.359.274 6.378 1.288 12.712 3.027 18.841l-3.62 2.11c-3.57 2.05-5.78 5.88-5.77 10-.01 2.02.53 4.01 1.55 5.77l2.867 4.965c-18.773-6.764-31.857-24.938-31.857-45.295zm81.79 34.376c-.322-.315-.648-.622-.962-.946h1.884c-.306.317-.608.638-.922.946zm90.01-86.316c.77.83 2.109 1.03 3.09.46l5.359-3.1c3.191-1.831 7.185-.654 8.96 2.41l8.32 14.41c1.831 3.189.659 7.18-2.4 8.96l-5.34 3.07c-1.02.59-1.489 1.79-1.14 2.91 4.48 14.397 4.771 30.359 0 45.71-.35 1.12.12 2.32 1.14 2.9l5.34 3.09c2.011 1.16 3.271 3.34 3.271 5.68 0 1.15-.29 2.25-.88 3.27l-8.32 14.42c-1.16 2.01-3.34 3.27-5.689 3.27-1.15 0-2.25-.29-3.261-.88l-5.359-3.09c-.98-.57-2.32-.37-3.09.46-10.641 11.54-24.32 19.44-39.561 22.85-1.15.26-1.95 1.26-1.95 2.44v6.19c-.01 3.61-2.939 6.54-6.55 6.55h-16.65c-3.6-.01-6.539-2.94-6.55-6.55v-6.19c0-1.16-.83-2.19-1.96-2.44-3.644-.813-7.284-1.903-10.93-3.33 7.202-3.977 13.786-9.125 19.15-14.67l3.659 2.12c5.498 3.172 12.576 1.29 15.771-4.23l1.815-3.142c11.964-2.927 21.944-9.682 29.025-18.648.85-1.08.67-2.66-.42-3.51-1.05-.83-2.68-.64-3.51.41-5.401 6.853-12.692 12.283-21.438 15.417l2.858-4.948c3.191-5.561 1.252-12.623-4.23-15.78l-3.62-2.1c1.57-5.537 2.546-11.193 2.922-16.967 4.321-3.006 8.381-6.425 12.068-10.233l3.65 2.11c5.47 3.188 12.589 1.301 15.779-4.23l1.459-2.527c1.488 7.393 1.244 15.017-.859 22.427-.371 1.323.383 2.717 1.729 3.09 1.311.36 2.721-.44 3.08-1.73 2.714-9.599 2.712-19.948-.37-29.98l3.28-5.69c3.177-5.478 1.325-12.587-4.22-15.78l-3.63-2.1c1.738-6.078 2.838-12.889 3.07-19.579 2.17 1.799 4.752 4.216 7.132 6.8zm-32.4-61.62c.77.84 2.1 1.04 3.09.47l5.36-3.1c3.173-1.823 7.18-.673 8.96 2.4l8.31 14.42c1.822 3.118.721 7.153-2.39 8.94l-5.34 3.1c-1.021.58-1.49 1.78-1.141 2.9 4.677 14.997 4.58 31.068 0 45.7-.35 1.13.12 2.33 1.141 2.92l5.34 3.08c3.116 1.798 4.207 5.838 2.39 8.95l-8.319 14.41c-1.79 3.116-5.833 4.217-8.95 2.41l-5.36-3.1c-.99-.57-2.32-.37-3.09.46-10.295 11.163-24.008 19.393-39.55 22.85-1.141.25-1.96 1.28-1.96 2.44v6.19c-.011 3.6-2.95 6.54-6.551 6.55-4.735 0-8.247 0-14.725 0-6.028-8.218-9.284-18.266-9.284-28.39 0-3.167.371-6.913 1.179-10.535 33.892 9.559 67.601-15.911 67.601-51.085 0-20.433-11.644-38.428-28.78-47.23-1.2-.62-2.75-.11-3.37 1.08-.629 1.237-.151 2.723 1.08 3.37 4.707 2.417 8.923 5.567 12.59 9.39h-10.54c-6.369 0-11.55 5.18-11.55 11.55v4.21c-4.718 1.184-9.333 2.806-13.76 4.813-4.638-2.108-9.365-3.72-13.78-4.813v-4.21c0-6.37-5.18-11.55-11.55-11.55h-8.018c.876-.911 1.778-1.794 2.718-2.63 9.673-8.611 22.498-12.954 35.72-11.92 1.391.12 2.58-.93 2.69-2.29.109-1.37-.92-2.58-2.29-2.69-14.673-1.148-28.796 3.683-39.44 13.16-2.19 1.94-4.23 4.09-6.08 6.37h-1.95c-6.37 0-11.55 5.18-11.55 11.55v4.22c-7.168 1.801-14.591 4.753-21.42 8.75.651-5.302 1.63-9.744 2.96-13.97.35-1.13-.12-2.32-1.14-2.91l-5.34-3.09c-3.207-1.845-4.174-5.86-2.4-8.95l8.32-14.42c1.773-3.061 5.766-4.229 8.95-2.4l5.37 3.11c.98.56 2.32.36 3.09-.48 10.64-11.53 24.32-19.43 39.55-22.84 1.14-.25 1.96-1.28 1.96-2.44v-6.19c.01-3.61 2.94-6.54 6.55-6.55h16.64c3.601.01 6.54 2.94 6.551 6.55v6.19c0 1.18.8 2.18 1.949 2.44 15.239 3.41 28.919 11.31 39.559 22.84z"/><path d="m143.81 46.12c-1.31-.37-2.72.43-3.09 1.72-.446 1.604.763 3.19 2.41 3.19 1.11 0 2.1-.75 2.4-1.82.38-1.33-.4-2.71-1.72-3.09z"/><path d="m17.67 160.5v-.01c-.03-1.37-1.21-2.49-2.56-2.45-1.435.043-2.48 1.225-2.44 2.55.03 1.35 1.15 2.45 2.5 2.45 1.384 0 2.52-1.148 2.5-2.54z"/></svg>