<svg height="512" viewBox="0 0 64 64" width="512" xmlns="http://www.w3.org/2000/svg"><g id="CPU-Computer-Processor-Cogwheel-Technology"><g fill="#ff9811"><circle cx="59" cy="48" r="2"/><circle cx="56" cy="37" r="2"/><circle cx="56" cy="59" r="2"/><path d="m41.68 22.47a9.8 9.8 0 0 1 -1.09 2.62l2.02 2.69-2.83 2.83-2.69-2.02a9.8 9.8 0 0 1 -2.62 1.09l-.47 3.32h-4l-.47-3.32a9.8 9.8 0 0 1 -2.62-1.09l-2.69 2.02-2.83-2.83 2.02-2.69a9.8 9.8 0 0 1 -1.09-2.62l-3.32-.47v-4l3.32-.47a9.8 9.8 0 0 1 1.09-2.62l-2.02-2.69 2.83-2.83 2.69 2.02a9.8 9.8 0 0 1 2.62-1.09l.47-3.32h4l.47 3.32a9.8 9.8 0 0 1 2.62 1.09l2.69-2.02 2.83 2.83-2.02 2.69a9.8 9.8 0 0 1 1.09 2.62l3.32.47v4z"/></g><path d="m23 39h18v18h-18z" fill="#acabb1"/><path d="m37 43v7l-3 3h-7v-10z" fill="#e6e7e8"/><circle cx="32" cy="20" fill="#ffd422" r="5"/><circle cx="8" cy="37" fill="#ff9811" r="2"/><circle cx="8" cy="59" fill="#ff9811" r="2"/><circle cx="5" cy="48" fill="#ff9811" r="2"/><path d="m41 38h-8v-2h-2v2h-8a1 1 0 0 0 -1 1v18a1 1 0 0 0 1 1h18a1 1 0 0 0 1-1v-18a1 1 0 0 0 -1-1zm-1 18h-16v-16h16z"/><path d="m27 54h7a1 1 0 0 0 .707-.293l3-3a1 1 0 0 0 .293-.707v-7a1 1 0 0 0 -1-1h-10a1 1 0 0 0 -1 1v10a1 1 0 0 0 1 1zm1-10h8v5.586l-2.412 2.414h-5.588z"/><path d="m44 42v2h6a1 1 0 0 0 .707-.293l3-3-1.414-1.414-2.707 2.707z"/><path d="m50.707 52.293a1 1 0 0 0 -.707-.293h-6v2h5.586l2.707 2.707 1.414-1.414z"/><path d="m44 47h10v2h-10z"/><path d="m11.707 39.293-1.414 1.414 3 3a1 1 0 0 0 .707.293h6v-2h-5.586z"/><path d="m13.293 52.293-3 3 1.414 1.414 2.707-2.707h5.586v-2h-6a1 1 0 0 0 -.707.293z"/><path d="m10 47h10v2h-10z"/><path d="m56 40a3 3 0 1 0 -3-3 3 3 0 0 0 3 3zm0-4a1 1 0 1 1 -1 1 1 1 0 0 1 1-1z"/><path d="m59 45a3 3 0 1 0 3 3 3 3 0 0 0 -3-3zm0 4a1 1 0 1 1 1-1 1 1 0 0 1 -1 1z"/><path d="m56 56a3 3 0 1 0 3 3 3 3 0 0 0 -3-3zm0 4a1 1 0 1 1 1-1 1 1 0 0 1 -1 1z"/><path d="m8 40a3 3 0 1 0 -3-3 3 3 0 0 0 3 3zm0-4a1 1 0 1 1 -1 1 1 1 0 0 1 1-1z"/><path d="m8 48a3 3 0 1 0 -3 3 3 3 0 0 0 3-3zm-4 0a1 1 0 1 1 1 1 1 1 0 0 1 -1-1z"/><path d="m8 56a3 3 0 1 0 3 3 3 3 0 0 0 -3-3zm0 4a1 1 0 1 1 1-1 1 1 0 0 1 -1 1z"/><path d="m31 60h2v2h-2z"/><path d="m35 60h2v2h-2z"/><path d="m39 60h2v2h-2z"/><path d="m23 60h2v2h-2z"/><path d="m27 60h2v2h-2z"/><path d="m41.782 25.012a10.96 10.96 0 0 0 .678-1.639l2.682-.383a1 1 0 0 0 .858-.99v-4a1 1 0 0 0 -.858-.99l-2.682-.383a10.96 10.96 0 0 0 -.678-1.639l1.624-2.166a1 1 0 0 0 -.093-1.307l-2.828-2.828a1 1 0 0 0 -1.307-.093l-2.166 1.624a10.96 10.96 0 0 0 -1.639-.678l-.383-2.682a1 1 0 0 0 -.99-.858h-4a1 1 0 0 0 -.99.858l-.383 2.682a10.96 10.96 0 0 0 -1.639.678l-2.166-1.624a1 1 0 0 0 -1.307.093l-2.828 2.828a1 1 0 0 0 -.093 1.307l1.624 2.166a10.96 10.96 0 0 0 -.678 1.639l-2.682.383a1 1 0 0 0 -.858.99v4a1 1 0 0 0 .858.99l2.682.383a10.96 10.96 0 0 0 .678 1.639l-1.624 2.166a1 1 0 0 0 .093 1.307l2.828 2.828a1 1 0 0 0 1.307.093l2.166-1.624a10.96 10.96 0 0 0 1.639.678l.383 2.682a1 1 0 0 0 .99.858h4a1 1 0 0 0 .99-.858l.383-2.682a10.96 10.96 0 0 0 1.639-.678l2.166 1.624a1 1 0 0 0 1.307-.093l2.828-2.828a1 1 0 0 0 .093-1.307zm-1.988.683 1.492 1.99-1.6 1.6-1.986-1.491a1 1 0 0 0 -1.111-.06 8.892 8.892 0 0 1 -2.356.975 1 1 0 0 0 -.743.828l-.357 2.463h-2.266l-.352-2.463a1 1 0 0 0 -.743-.828 8.892 8.892 0 0 1 -2.356-.975 1 1 0 0 0 -1.111.06l-1.99 1.492-1.6-1.6 1.492-1.99a1 1 0 0 0 .06-1.111 8.892 8.892 0 0 1 -.975-2.356 1 1 0 0 0 -.828-.743l-2.464-.353v-2.266l2.463-.352a1 1 0 0 0 .828-.743 8.892 8.892 0 0 1 .975-2.356 1 1 0 0 0 -.06-1.111l-1.492-1.99 1.6-1.6 1.99 1.492a1 1 0 0 0 1.111.06 8.892 8.892 0 0 1 2.356-.975 1 1 0 0 0 .743-.828l.353-2.464h2.266l.352 2.463a1 1 0 0 0 .743.828 8.892 8.892 0 0 1 2.356.975 1 1 0 0 0 1.111-.06l1.99-1.492 1.6 1.6-1.492 1.99a1 1 0 0 0 -.06 1.111 8.892 8.892 0 0 1 .975 2.356 1 1 0 0 0 .828.743l2.464.353v2.266l-2.463.352a1 1 0 0 0 -.828.743 8.892 8.892 0 0 1 -.975 2.356 1 1 0 0 0 .06 1.116z"/><path d="m32 14a6 6 0 1 0 6 6 6.006 6.006 0 0 0 -6-6zm0 10a4 4 0 1 1 4-4 4 4 0 0 1 -4 4z"/><path d="m31 2h2v2h-2z"/><path d="m22.5 4.278h2v2h-2z" transform="matrix(.866 -.5 .5 .866 .51 12.458)"/><path d="m16.277 10.5h2v2h-2z" transform="matrix(.5 -.866 .866 .5 -1.321 20.712)"/><path d="m14 19h2v2h-2z"/><path d="m16.278 27.5h2v2h-2z" transform="matrix(.866 -.5 .5 .866 -11.936 12.458)"/><path d="m22.5 33.722h2v2h-2z" transform="matrix(.5 -.866 .866 .5 -18.32 37.717)"/><path d="m39.5 33.722h2v2h-2z" transform="matrix(.866 -.5 .5 .866 -11.934 24.897)"/><path d="m45.722 27.5h2v2h-2z" transform="matrix(.5 -.866 .866 .5 -1.318 54.717)"/><path d="m48 19h2v2h-2z"/><path d="m45.722 10.5h2v2h-2z" transform="matrix(.866 -.5 .5 .866 .508 24.898)"/><path d="m39.5 4.277h2v2h-2z" transform="matrix(.5 -.866 .866 .5 15.682 37.715)"/></g></svg>