<svg id="Layer_1" enable-background="new 0 0 512 512" height="512" viewBox="0 0 512 512" width="512" xmlns="http://www.w3.org/2000/svg"><g><path d="m176 303.901h160v200.599h-160z" fill="#7be492"/><path d="m306 303.901h30v200.599h-30z" fill="#45d987"/><path d="m226 221.537h60v82.364h-60z" fill="#ffc6a1"/><path d="m256 221.537h30v82.364h-30z" fill="#fdaa8e"/><path d="m256 303.901h-51v-30h31.904c10.546 0 19.096 8.549 19.096 19.096z" fill="#f3f3f3"/><path d="m256 303.901h51v-30h-31.904c-10.546 0-19.096 8.549-19.096 19.096z" fill="#e4e4e4"/><g fill="#fd9b7a"><path d="m187.03 161.94c0 15.99-9.821 28.953-21.936 28.953s-19.153-14.886-19.153-30.876 7.038-27.029 19.153-27.029c12.114 0 21.936 12.962 21.936 28.952z"/><path d="m324.97 161.94c0 15.99 9.821 28.953 21.936 28.953s19.153-14.886 19.153-30.876-7.038-27.029-19.153-27.029c-12.114 0-21.936 12.962-21.936 28.952z"/></g><path d="m175.687 164.167v-59.416c0-41.797 33.883-75.68 75.68-75.68h9.267c41.797 0 75.68 33.883 75.68 75.68v59.416c0 44.289-35.903 80.192-80.192 80.192h-.242c-44.29.001-80.193-35.903-80.193-80.192z" fill="#ffc6a1"/><path d="m260.634 29.071h-9.267c-3.519 0-6.975.26-10.366.725 36.889 5.056 65.313 36.677 65.313 74.955v59.416c0 39.203-28.137 71.814-65.313 78.792 4.824.906 9.792 1.4 14.879 1.4h.242c44.289 0 80.192-35.904 80.192-80.193v-59.416c-.001-41.795-33.884-75.679-75.68-75.679z" fill="#fdaa8e"/><path d="m336 396.692h42v-56.792c0-19.882-16.118-36-36-36h-6z" fill="#e4e4e4"/><path d="m134 396.692h42v-92.792h-6c-19.882 0-36 16.118-36 36z" fill="#f3f3f3"/><path d="m355.31 81.015c-.62 42.399-19 60.485-19 60.485-41.92-26.561-59.563-79.372-59.563-79.372s-15.644 57.026-101.057 79.372c0 0-18.38-18.085-19-60.485-.384-26.714 34.31-73.515 99.31-73.515s99.536 57.83 99.31 73.515z" fill="#4380a0"/><g><path d="m256 7.5c-5.463 0-10.707.338-15.739.959 55.776 7.576 85.258 58.06 85.049 72.556-.292 20.002-4.537 34.587-8.94 44.421 5.918 5.881 12.55 11.381 19.94 16.064 0 0 18.38-18.085 19-60.485.226-15.685-34.31-73.515-99.31-73.515z" fill="#3b7191"/></g><circle cx="206.5" cy="150.404" fill="#29cef6" r="38"/><circle cx="305.5" cy="150.404" fill="#29cef6" r="38"/><path d="m404 504.5h-296v-126c0-13.255 10.745-24 24-24h248c13.255 0 24 10.745 24 24z" fill="#4380a0"/><path d="m380 354.5h-30c13.255 0 24 10.745 24 24v126h30v-126c0-13.255-10.745-24-24-24z" fill="#3b7191"/><path d="m275.725 448.092-11.817-11.816c-4.367-4.368-11.448-4.368-15.816 0l-11.817 11.816c-4.367 4.367-4.367 11.448 0 15.816l11.817 11.816c4.367 4.367 11.448 4.367 15.816 0l11.817-11.816c4.367-4.367 4.367-11.449 0-15.816z" fill="#ffb200"/><g><path d="m385.5 347.491v-7.59c0-23.986-19.514-43.5-43.5-43.5h-6c-.003 0-.006 0-.01 0h-21.49v-22.5c0-4.142-3.357-7.5-7.5-7.5h-13.5v-22.883c19.983-9.393 35.923-26.116 44.181-46.954 2.956 1.195 6.071 1.826 9.229 1.826 15.441 0 26.649-16.137 26.649-38.37 0-17.386-7.59-29.967-19.499-33.514 4.397-10.491 8.461-25.479 8.748-45.376.125-8.466-6.098-22.202-15.853-34.993-2.512-3.293-7.216-3.928-10.512-1.416-3.294 2.512-3.928 7.218-1.416 10.512 9.755 12.791 12.824 22.822 12.782 25.678-.26 17.925-3.866 31.091-7.681 40.078-7.725-9.001-18.895-14.96-31.46-15.801-16.938-22.378-24.728-45.205-24.806-45.436-1.042-3.12-4.011-5.187-7.288-5.105-3.288.075-6.148 2.299-7.048 5.462-.021.072-2.113 7.277-8.586 17.249-5.664 8.724-15.907 21.337-32.897 32.979-6.417-3.464-13.754-5.435-21.544-5.435-13.864 0-26.292 6.24-34.644 16.051-3.932-9.228-7.407-22.311-7.667-40.042-.156-10.989 7.233-25.687 18.825-37.444 10.483-10.63 33.904-28.467 72.987-28.467 21.358 0 40.958 6.594 58.255 19.597 3.312 2.491 8.014 1.822 10.502-1.488 2.489-3.311 1.822-8.013-1.488-10.501-19.673-14.79-42.935-22.608-67.269-22.608-33.013 0-62.727 11.698-83.667 32.938-14.708 14.918-23.359 32.932-23.142 48.191.289 19.749 4.22 34.656 8.736 45.381-11.902 3.552-19.487 16.13-19.487 33.51 0 22.233 11.208 38.37 26.65 38.37 3.198 0 6.353-.648 9.342-1.873 2.513 6.329 5.753 12.373 9.682 17.971 1.46 2.08 3.784 3.191 6.145 3.191 1.488 0 2.992-.442 4.303-1.362 3.39-2.38 4.209-7.057 1.83-10.448-2.967-4.226-5.46-8.759-7.456-13.497 5.407 2.271 11.341 3.53 17.564 3.53 22.534 0 41.283-16.469 44.871-38h9.335c3.505 21.546 22.193 38.087 44.728 38.172h.174c6.203 0 12.121-1.251 17.517-3.512-7.559 17.866-22.009 31.906-39.874 39.063-.095.038-.189.075-.282.116-8.318 3.292-17.364 5.102-26.801 5.102-.093 0-.188 0-.281 0h-.227c-13.597-.051-26.838-3.875-38.292-11.057-3.509-2.203-8.139-1.14-10.338 2.37-2.201 3.509-1.14 8.138 2.37 10.338 2.94 1.844 5.983 3.493 9.102 4.965v22.94h-13.502c-4.142 0-7.5 3.358-7.5 7.5v22.5h-21.49c-.003 0-.006 0-.01 0h-6c-23.986 0-43.5 19.514-43.5 43.5v7.59c-14.755 2.61-26 15.517-26 31.009v126c0 4.142 3.358 7.5 7.5 7.5h211.588c4.143 0 7.5-3.358 7.5-7.5s-3.357-7.5-7.5-7.5h-204.088v-118.498c0-9.098 7.402-16.5 16.5-16.5h248c9.098 0 16.5 7.402 16.5 16.5v118.5h-44.261c-4.143 0-7.5 3.358-7.5 7.5s3.357 7.5 7.5 7.5h51.761c4.143 0 7.5-3.358 7.5-7.5v-126c0-15.492-11.245-28.399-26-31.009zm-38.59-164.101c-1.865 0-3.501-.562-4.884-1.337.378-1.832.688-3.691.952-5.567 5.086-7.313 8.091-16.177 8.128-25.738.013-3.341-.347-6.596-1.022-9.736 8.021 2.787 8.476 16.092 8.476 19.008 0 11.239-4.455 23.37-11.65 23.37zm-70.461-102.608c3.564 7.456 8.591 16.782 15.232 26.483-15.924 5.133-28.048 18.818-30.917 35.639h-9.393c-1.451-8.706-5.375-16.584-11.034-22.88 18.711-13.662 29.799-28.346 36.112-39.242zm-111.359 102.608c-7.196 0-11.65-12.131-11.65-23.37 0-2.924.458-16.3 8.546-19.033-.642 3.04-.986 6.189-.986 9.417 0 9.59 2.99 18.491 8.075 25.835.267 1.932.595 3.854.991 5.76-1.403.802-3.069 1.391-4.976 1.391zm41.41-2.486c-9.443 0-17.896-4.314-23.495-11.074-.435-.921-1.049-1.73-1.794-2.393-3.289-4.867-5.211-10.73-5.211-17.033 0-16.818 13.682-30.5 30.5-30.5s30.5 13.682 30.5 30.5-13.682 30.5-30.5 30.5zm98.99.172c-16.817-.063-30.448-13.797-30.385-30.615.063-16.78 13.732-30.385 30.498-30.385h.117c12.534.047 23.295 7.691 27.938 18.542.049.127.103.251.158.375 1.487 3.607 2.304 7.558 2.288 11.696-.064 16.78-13.733 30.386-30.498 30.386-.037.002-.078.001-.116.001zm-5.99 115.325h-36v-3.405c0-6.394 5.202-11.595 11.596-11.595h24.404zm-66-47.472c7.172 1.892 14.596 2.888 22.116 2.916h.227.338c7.698 0 15.175-1.016 22.319-2.889v17.444h-3.404c-7.488 0-14.258 3.115-19.096 8.111-4.838-4.996-11.608-8.111-19.096-8.111h-3.404zm-21 32.472h24.404c6.394 0 11.596 5.202 11.596 11.595v3.405h-36zm-71 58.499c0-15.211 11.98-27.678 27-28.461v35.561h-27zm42-28.499h145v35.599h-145zm160 35.599v-35.561c15.02.783 27 13.25 27 28.461v7.1z"/><path d="m256 425.5c-4.991 0-9.683 1.944-13.211 5.473l-11.817 11.816c-7.284 7.284-7.285 19.137 0 26.422l11.817 11.816c3.642 3.643 8.427 5.463 13.211 5.463s9.569-1.821 13.211-5.463l11.816-11.816c7.284-7.285 7.284-19.138 0-26.422l-11.816-11.816c-3.528-3.529-8.22-5.473-13.211-5.473zm14.421 33.105-11.816 11.816c-1.436 1.437-3.773 1.435-5.209 0l-11.816-11.816c-1.437-1.436-1.437-3.773 0-5.209l11.817-11.816c.938-.939 2.035-1.079 2.604-1.079s1.666.14 2.604 1.079l11.816 11.816c1.436 1.436 1.436 3.773 0 5.209z"/><path d="m151.175 385.929c-2.929-2.929-7.678-2.929-10.606 0l-13.054 13.054c-2.929 2.929-2.929 7.678 0 10.606l12.882 12.882c1.464 1.464 3.384 2.197 5.303 2.197s3.839-.732 5.303-2.197c2.929-2.929 2.929-7.678 0-10.606l-7.579-7.579 7.751-7.751c2.929-2.928 2.929-7.677 0-10.606z"/><path d="m193.983 422.472c1.464 1.465 3.384 2.197 5.303 2.197s3.839-.732 5.303-2.197l12.881-12.882c2.929-2.929 2.929-7.678 0-10.606l-13.054-13.054c-2.929-2.929-7.678-2.929-10.606 0-2.929 2.929-2.929 7.678 0 10.606l7.751 7.751-7.578 7.579c-2.929 2.928-2.929 7.677 0 10.606z"/><path d="m172.395 381.206-15.436 40.666c-1.47 3.873.478 8.204 4.35 9.673.876.333 1.775.49 2.66.49 3.025 0 5.876-1.844 7.013-4.84l15.436-40.666c1.47-3.873-.478-8.204-4.35-9.673-3.871-1.47-8.203.478-9.673 4.35z"/></g></g></svg>