<svg id="Capa_1" enable-background="new 0 0 512 512" height="512" viewBox="0 0 512 512" width="512" xmlns="http://www.w3.org/2000/svg"><g><g><path clip-rule="evenodd" d="m322.485 465.702 19.594-13.852-5.327-44.458-20.593-11.258-22.626 14.495 4.955 41.336c.773-.058 23.997 13.737 23.997 13.737z" fill="#9d9696" fill-rule="evenodd"/></g><g><path clip-rule="evenodd" d="m211.017 451.964 4.812-40.075-20.765-16.156-22.111 10.054-5.528 46.062 26.35 8.995z" fill="#9d9696" fill-rule="evenodd"/></g><g><path clip-rule="evenodd" d="m215.829 411.889c10.826-6.445 17.729-18.62 16.812-32.054-.286-4.325-1.375-8.422-3.065-12.146l-31.391-19.909-31.391 19.909c-2.349 5.099-3.494 10.828-3.093 16.815.544 8.279 3.981 15.669 9.251 21.284 6.845 7.305 16.784 11.601 27.553 10.857 5.615-.373 10.799-2.063 15.324-4.756z" fill="#fdb440" fill-rule="evenodd"/></g><g><path clip-rule="evenodd" d="m315.443 416.644c8.277-.544 15.695-3.982 21.309-9.253 7.303-6.846 11.571-16.786 10.855-27.557-.286-4.325-1.375-8.422-3.093-12.146l-31.505-19.307-31.276 19.307c-2.349 5.099-3.494 10.828-3.093 16.815.745 10.943 6.502 20.367 14.893 26.125 6.186 4.297 13.833 6.589 21.91 6.016z" fill="#fdb440" fill-rule="evenodd"/></g><g><path clip-rule="evenodd" d="m215.829 411.889c10.826-6.445 17.729-18.62 16.812-32.054-.286-4.325-1.375-8.422-3.065-12.146h-62.781c-1.661 3.581-2.721 7.476-3.065 11.573h35.515c9.108 0 13.289 1.404 14.034 12.146.372 5.786-.687 11.315-2.864 16.271-1.346 3.036-3.093 5.844-5.213 8.336 3.81-.775 7.391-2.207 10.627-4.126z" fill="#fe9737" fill-rule="evenodd"/></g><g><path clip-rule="evenodd" d="m330.766 411.889c10.855-6.445 17.758-18.62 16.841-32.054-.286-4.325-1.375-8.422-3.093-12.146h-62.781c-1.661 3.581-2.721 7.476-3.036 11.573h35.486c9.137 0 13.318 1.404 14.034 12.146.401 5.786-.659 11.315-2.864 16.271-1.318 3.036-3.093 5.844-5.184 8.336 3.809-.775 7.389-2.207 10.597-4.126z" fill="#fe9737" fill-rule="evenodd"/></g><g><path clip-rule="evenodd" d="m152.217 192.436 104.196 25.573 103.394-25.573c0-72.015-51.898-107.994-103.795-107.994s-103.795 35.979-103.795 107.994z" fill="#eee1dc" fill-rule="evenodd"/></g><g><path clip-rule="evenodd" d="m221.07 164.678c9.509 0 17.213-7.706 17.213-17.187 0-9.51-7.704-17.216-17.213-17.216-9.48 0-17.185 7.706-17.185 17.216.001 9.481 7.705 17.187 17.185 17.187z" fill="#60b7ff" fill-rule="evenodd"/></g><g><path clip-rule="evenodd" d="m291.012 164.678c9.509 0 17.213-7.706 17.213-17.187 0-9.51-7.704-17.216-17.213-17.216s-17.213 7.706-17.213 17.216c0 9.481 7.704 17.187 17.213 17.187z" fill="#60b7ff" fill-rule="evenodd"/></g><g><path clip-rule="evenodd" d="m106.449 251.589-52.557-52.565 2.148-23.231 23.4-2.321 47.802 47.81-5.671 20.195z" fill="#9d9696" fill-rule="evenodd"/></g><g><path clip-rule="evenodd" d="m135.405 281.781c-17.901-1.203-31.706-15.87-32.221-33.429-.029-1.117 0-2.263.086-3.38.859-12.69 8.449-23.317 19.046-28.617 5.327-2.664 11.399-3.982 17.757-3.552 4.325.286 8.42 1.375 12.144 3.094l21.681 32.455-21.681 30.336c-5.098 2.348-10.826 3.494-16.812 3.093z" fill="#fdb440" fill-rule="evenodd"/></g><g><path clip-rule="evenodd" d="m49.109 199.396c-16.956 0-30.703-13.75-30.703-30.708 0-10.141 4.926-19.135 12.488-24.721 5.098-3.753 11.399-5.987 18.216-5.987s13.118 2.234 18.216 5.987c7.561 5.586 12.488 14.581 12.488 24.721 0 1.633-.115 3.237-.372 4.784-2.062 13.12-12.43 23.518-25.548 25.552-1.549.258-3.152.372-4.785.372z" fill="#fdb440" fill-rule="evenodd"/></g><g><path d="m302.096 238.693h-27.782c-4.174 0-7.557-3.383-7.557-7.557s3.383-7.557 7.557-7.557h27.782c4.174 0 7.557 3.383 7.557 7.557s-3.383 7.557-7.557 7.557z"/></g><g><path d="m238.513 238.693h-27.782c-4.174 0-7.557-3.383-7.557-7.557s3.383-7.557 7.557-7.557h27.782c4.174 0 7.557 3.383 7.557 7.557s-3.383 7.557-7.557 7.557z"/></g><g><path clip-rule="evenodd" d="m223.333 504.443c5.47 0 9.967-4.497 9.967-9.997v-17.932c0-12.776-9.824-23.346-22.283-24.549-.773-.057-1.575-.115-2.349-.115h-41.243-10.855c-13.547 0-24.631 11.114-24.631 24.664v17.932c0 5.5 4.497 9.997 9.967 9.997z" fill="#fdb440" fill-rule="evenodd"/></g><g><path clip-rule="evenodd" d="m286.172 504.443h81.427c5.47 0 9.967-4.497 9.967-9.997v-17.932c0-13.549-11.084-24.664-24.631-24.664h-10.855-41.243c-.802 0-1.575.057-2.349.115-12.459 1.203-22.283 11.773-22.283 24.549v17.932c-.001 5.499 4.467 9.997 9.967 9.997z" fill="#fdb440" fill-rule="evenodd"/></g><g><path clip-rule="evenodd" d="m405.576 251.589 52.557-52.565-2.177-23.231-23.4-2.321-47.773 47.81 5.642 20.195z" fill="#9d9696" fill-rule="evenodd"/></g><g><path clip-rule="evenodd" d="m376.592 281.781c17.929-1.203 31.706-15.87 32.221-33.429.029-1.117 0-2.263-.057-3.38-.859-12.69-8.449-23.317-19.075-28.617-5.299-2.664-11.371-3.982-17.757-3.552-4.325.286-8.392 1.375-12.115 3.094l-21.71 32.455 21.71 30.336c5.068 2.348 10.797 3.494 16.783 3.093z" fill="#fdb440" fill-rule="evenodd"/></g><g><path clip-rule="evenodd" d="m462.916 199.396c16.956 0 30.675-13.75 30.675-30.708 0-10.141-4.898-19.135-12.488-24.721-5.098-3.753-11.399-5.987-18.187-5.987-6.817 0-13.118 2.234-18.216 5.987-7.59 5.586-12.488 14.581-12.488 24.721 0 1.633.115 3.237.344 4.784 2.062 13.12 12.43 23.518 25.577 25.552 1.547.258 3.15.372 4.783.372z" fill="#fdb440" fill-rule="evenodd"/></g><g><path clip-rule="evenodd" d="m229.577 367.689h52.155 62.781c8.421 0 15.294-6.875 15.294-15.268v-53.51-62.791-43.684h-207.59v43.684 32.169 30.622 54.226c0 7.992 6.559 14.552 14.578 14.552z" fill="#cdbeb9" fill-rule="evenodd"/></g><g><path clip-rule="evenodd" d="m376.592 281.781c17.929-1.203 31.706-15.87 32.221-33.429.029-1.117 0-2.263-.057-3.38-.859-12.69-8.449-23.317-19.075-28.617-5.299-2.664-11.371-3.982-17.757-3.552-3.695.258-7.218 1.089-10.483 2.378 2.492.63 4.898 1.518 7.16 2.635 4.21 2.12 7.962 5.07 10.998 8.651 4.583 5.443 7.533 12.318 8.048 19.966.086 1.117.115 2.263.057 3.38 0 .286 0 .573-.029.859-.716 13.578-9.394 25.294-21.681 30.192 3.38.831 6.96 1.175 10.598.917z" fill="#fe9737" fill-rule="evenodd"/></g><g><path clip-rule="evenodd" d="m79.44 173.472c.258-1.547.372-3.151.372-4.784 0-10.141-4.926-19.135-12.488-24.721-5.098-3.753-11.399-5.987-18.216-5.987-3.58 0-7.017.63-10.225 1.747 9.165 3.237 16.325 10.685 19.161 20.023.859 2.836 1.317 5.844 1.317 8.937 0 2.349-.258 4.641-.745 6.846-.687 3.036-1.833 5.872-3.322 8.479-1.976 3.409-4.554 6.388-7.619 8.794-2.606 2.063-5.585 3.724-8.793 4.841 3.208 1.146 6.645 1.747 10.225 1.747 1.633 0 3.236-.115 4.783-.372 13.12-2.032 23.488-12.43 25.55-25.55z" fill="#fe9737" fill-rule="evenodd"/></g><g><path clip-rule="evenodd" d="m493.247 173.615c.229-1.575.344-3.151.344-4.784 0-10.14-4.898-19.135-12.488-24.75-5.098-3.753-11.399-5.958-18.216-5.958-3.58 0-7.017.602-10.196 1.747 9.137 3.208 16.325 10.685 19.161 20.023.859 2.807 1.318 5.815 1.318 8.937 0 2.349-.258 4.641-.773 6.846-.687 3.008-1.804 5.872-3.322 8.479-1.948 3.38-4.554 6.388-7.619 8.794-2.606 2.062-5.556 3.695-8.764 4.841 3.179 1.117 6.616 1.747 10.196 1.747 1.633 0 3.236-.143 4.783-.372 13.146-2.06 23.514-12.43 25.576-25.55z" fill="#fe9737" fill-rule="evenodd"/></g><g><path clip-rule="evenodd" d="m304.044 323.26c4.353 0 7.934-3.581 7.934-7.935v-36.838c0-4.354-3.58-7.935-7.934-7.935h-95.26c-4.353 0-7.934 3.581-7.934 7.935v36.838c0 4.354 3.58 7.935 7.934 7.935z" fill="#60b7ff" fill-rule="evenodd"/></g><g><path clip-rule="evenodd" d="m152.217 248.065v-32.169c-3.723-1.719-7.819-2.807-12.144-3.094-2.664-.172-5.299-.057-7.848.372v68.234c1.031.172 2.119.286 3.179.372 5.986.401 11.714-.745 16.812-3.094v-30.621z" fill="#fe9737" fill-rule="evenodd"/></g><g><path clip-rule="evenodd" d="m377.565 494.445v-17.932c0-13.549-11.084-24.664-24.631-24.664h-10.855-15.208c13.576 0 24.66 11.114 24.66 24.664v17.932c0 5.5-4.497 9.997-9.996 9.997h26.063c5.471.001 9.967-4.497 9.967-9.997z" fill="#fe9737" fill-rule="evenodd"/></g><g><path clip-rule="evenodd" d="m233.3 494.445v-17.932c0-13.549-11.084-24.664-24.631-24.664h-10.855-15.208c13.576 0 24.66 11.114 24.66 24.664v17.932c0 5.5-4.497 9.997-9.996 9.997h26.063c5.47.001 9.967-4.497 9.967-9.997z" fill="#fe9737" fill-rule="evenodd"/></g><g><path clip-rule="evenodd" d="m359.808 192.436c0-72.015-51.898-107.994-103.795-107.994-5.155 0-10.282.344-15.38 1.06 46.313 6.417 88.444 42.052 88.444 106.934z" fill="#cdbeb9" fill-rule="evenodd"/></g><g><path clip-rule="evenodd" d="m359.808 352.421v-53.51-62.791-43.684h-30.732v175.253h15.438c8.42 0 15.294-6.875 15.294-15.268z" fill="#9d9696" fill-rule="evenodd"/></g><g><path clip-rule="evenodd" d="m256.012 52.674c12.459 0 22.541-10.112 22.541-22.573s-10.082-22.544-22.541-22.544-22.569 10.083-22.569 22.544 10.111 22.573 22.569 22.573z" fill="#fd8087" fill-rule="evenodd"/></g><g><path clip-rule="evenodd" d="m256.012 52.674c12.459 0 22.541-10.112 22.541-22.573s-10.082-22.544-22.541-22.544c-2.807 0-5.47.487-7.962 1.432 6.673 3.924 11.17 11.172 11.17 19.45 0 9.682-6.072 17.932-14.607 21.14 3.323 1.949 7.247 3.095 11.399 3.095z" fill="#fd4755" fill-rule="evenodd"/></g><g><path clip-rule="evenodd" d="m211.017 451.964 4.812-40.075c-3.236 1.919-6.817 3.352-10.626 4.125-1.518.315-3.093.544-4.697.63-2.578.201-5.127.086-7.59-.315l-4.869 35.52h9.767 10.855c.773 0 1.575.058 2.348.115z" fill="#746e6e" fill-rule="evenodd"/></g><g><path clip-rule="evenodd" d="m342.079 451.849-5.327-44.458c-1.833 1.719-3.809 3.208-5.986 4.497-3.208 1.919-6.788 3.352-10.597 4.125-1.117.229-2.263.401-3.408.516l4.869 35.32h5.241z" fill="#746e6e" fill-rule="evenodd"/></g><g><path clip-rule="evenodd" d="m304.044 270.552h-95.26c-4.353 0-7.934 3.581-7.934 7.935v18.419c0-4.383 3.58-7.935 7.934-7.935h95.26c4.353 0 7.934 3.552 7.934 7.935v-18.419c-.001-4.354-3.581-7.935-7.934-7.935z" fill="#22a6fe" fill-rule="evenodd"/></g><g><path d="m245.841 147.491c0-13.66-11.112-24.774-24.771-24.774-13.643 0-24.742 11.114-24.742 24.774 0 13.644 11.099 24.744 24.742 24.744 13.659 0 24.771-11.1 24.771-24.744zm-34.398 0c0-5.326 4.319-9.659 9.627-9.659 5.324 0 9.656 4.333 9.656 9.659 0 5.31-4.332 9.63-9.656 9.63-5.308-.001-9.627-4.32-9.627-9.63z"/><path d="m511.48 103.885c-.01-.612-.021-1.256-.021-1.94v-18.935c0-3.438-.401-7.351-3.373-10.313-3.245-3.233-7.369-3.219-11.018-3.205l-6.799.002c-4.174 0-7.557 3.383-7.557 7.557s3.384 7.557 7.557 7.557h6.076v17.336c0 .774.012 1.503.023 2.195.061 3.619.01 4.165-.991 5.623l-16.544 24.148c-4.85-2.232-10.238-3.487-15.916-3.487-5.688 0-11.085 1.257-15.941 3.493l-16.554-24.164c-.995-1.448-1.047-1.995-.986-5.615.011-.692.023-1.419.023-2.193v-17.336h6.076c4.174 0 7.557-3.383 7.557-7.557s-3.383-7.557-7.557-7.557l-6.8-.002c-3.643-.013-7.773-.028-11.018 3.205-2.972 2.962-3.373 6.875-3.373 10.313v18.935c0 .684-.011 1.328-.021 1.939-.07 4.178-.149 8.913 3.636 14.42l16.795 24.516c-6.265 6.817-10.098 15.903-10.098 25.869 0 .662.017 1.32.05 1.974l-36.797 36.777c-5.148-1.771-10.723-2.568-16.486-2.178-1.364.09-2.717.252-4.058.474v-13.3c0-46.665-21.504-84.308-58.999-103.278-13.966-7.066-29.307-11.019-44.797-11.977v-17.913c12.95-3.365 22.54-15.165 22.54-29.167.001-16.597-13.501-30.101-30.096-30.101-16.612 0-30.127 13.504-30.127 30.101 0 14.004 9.603 25.807 22.57 29.169v17.93c-21.567 1.377-42.653 8.53-59.931 21.234-3.363 2.473-4.084 7.203-1.611 10.565 2.472 3.362 7.202 4.084 10.565 1.611 29.209-21.479 71.03-24.68 104.065-7.966 18.06 9.138 47.791 31.755 50.507 82.234h-192.072c1.048-19.078 6.115-35.947 15.104-50.236 2.222-3.533 1.16-8.198-2.373-10.421-3.531-2.221-8.198-1.16-10.421 2.373-11.698 18.595-17.629 40.748-17.629 65.841v13.303c-1.347-.223-2.706-.385-4.076-.476-5.765-.389-11.341.409-16.49 2.182l-36.775-36.781c.033-.654.051-1.313.051-1.975 0-9.967-3.833-19.053-10.098-25.869l16.808-24.535c3.757-5.521 3.687-10.062 3.62-14.453-.009-.597-.019-1.222-.019-1.887v-18.934c0-3.438-.401-7.351-3.373-10.313-3.245-3.233-7.374-3.219-11.018-3.205l-6.828.002c-4.174 0-7.557 3.383-7.557 7.557s3.383 7.557 7.557 7.557h6.105v17.336c0 .746.011 1.45.021 2.119.056 3.629-.002 4.247-.99 5.698l-16.548 24.155c-4.857-2.236-10.253-3.493-15.941-3.493-5.681 0-11.071 1.254-15.923 3.485l-16.552-24.127c-1.001-1.471-1.059-2.089-1.003-5.718.01-.669.021-1.373.021-2.119v-17.336h6.105c4.174 0 7.557-3.383 7.557-7.557s-3.383-7.557-7.557-7.557l-6.828-.002c-3.647-.013-7.773-.028-11.018 3.205-2.972 2.962-3.373 6.875-3.373 10.313v18.935c0 .665-.01 1.291-.019 1.887-.067 4.391-.137 8.932 3.636 14.477l16.806 24.497c-6.273 6.818-10.111 15.91-10.111 25.883 0 21.1 17.164 38.265 38.26 38.265.662 0 1.32-.017 1.974-.051l44.781 44.788c.881 8.58 4.364 16.669 10.153 23.303 7.398 8.479 17.654 13.567 28.883 14.327.936.063 1.873.094 2.808.094 2.331 0 4.657-.197 6.951-.578v64.3c0 8.718 5.08 16.272 12.438 19.87-.872 3.926-1.206 7.973-.936 12.008.58 8.572 3.688 16.574 8.892 23.173l-4.333 36.105h-4.151c-17.749 0-32.188 14.454-32.188 32.221v17.932c0 9.679 7.861 17.555 17.524 17.555h81.427c9.663 0 17.525-7.875 17.525-17.555v-17.932c0-14.027-9.004-25.982-21.527-30.397l3.591-29.905c11.299-8.244 18.272-21.923 17.26-36.875-.091-1.374-.254-2.737-.477-4.089h31.891c-.535 3.217-.716 6.497-.498 9.768.76 11.225 5.847 21.481 14.325 28.881.324.283.657.552.988.824l3.764 31.397c-12.524 4.414-21.528 16.37-21.528 30.397v17.932c0 9.679 7.861 17.555 17.525 17.555h81.427c9.663 0 17.524-7.875 17.524-17.555v-17.932c0-17.767-14.44-32.221-32.188-32.221h-4.149l-4.107-34.272c7.189-8.14 11.258-19.027 10.469-30.685-.14-2.121-.448-4.212-.901-6.268 7.746-3.658 13.119-11.536 13.119-20.646v-63.578c2.281.378 4.596.572 6.919.572.938 0 1.879-.031 2.818-.094 11.223-.76 21.483-5.846 28.888-14.323 5.797-6.636 9.286-14.726 10.169-23.306l44.782-44.789c.654.033 1.312.051 1.974.051 21.081 0 38.232-17.165 38.232-38.265 0-9.969-3.832-19.057-10.095-25.874l16.785-24.501c3.792-5.519 3.712-10.254 3.642-14.431zm-270.479-73.784c0-8.264 6.734-14.987 15.012-14.987 8.262 0 14.983 6.723 14.983 14.987 0 8.279-6.721 15.015-14.983 15.015-8.278.001-15.012-6.735-15.012-15.015zm111.25 169.892v15.904 62.791 73.733c0 4.18-3.543 7.711-7.737 7.711h-177.719c-3.872 0-7.021-3.138-7.021-6.995v-74.45-62.791-15.904h192.477zm-326.288-31.304c0-7.548 3.631-14.263 9.237-18.492.035-.024.066-.052.1-.077 3.857-2.877 8.637-4.583 13.808-4.583 12.763 0 23.146 10.385 23.146 23.151 0 12.765-10.383 23.15-23.146 23.15s-23.145-10.384-23.145-23.149zm56.58 18.575 27.95 27.954c-5.437 4.624-9.702 10.614-12.243 17.483l-30.569-30.574c6.228-3.474 11.389-8.635 14.862-14.863zm53.372 86.977c-7.194-.487-13.767-3.749-18.51-9.184-4.104-4.704-6.407-10.547-6.637-16.696 0-.083-.008-.166-.011-.249-.025-.872-.009-1.749.051-2.63.965-14.249 12.853-25.201 26.924-25.201.609 0 1.224.021 1.84.062 1.728.114 3.427.393 5.086.832v52.235c-2.826.752-5.754 1.031-8.743.831zm89.828 202.272v17.932c0 1.322-1.104 2.44-2.41 2.44h-81.427c-1.306 0-2.41-1.117-2.41-2.44v-17.932c0-9.432 7.659-17.106 17.074-17.106h10.856.008.01 41.223c9.416 0 17.076 7.674 17.076 17.106zm-21.416-32.221h-28.383l2.96-24.668c5.903 3.049 12.45 4.658 19.204 4.658.966 0 1.936-.033 2.909-.099 1.986-.134 3.927-.415 5.822-.812zm20.774-63.947c1.006 14.853-10.257 27.754-25.106 28.759-7.196.483-14.152-1.856-19.579-6.596-.666-.582-1.298-1.191-1.898-1.826-.048-.052-.094-.105-.143-.156-4.2-4.515-6.71-10.288-7.133-16.528-.2-2.995.088-5.923.84-8.753h52.179c.439 1.67.726 3.372.84 5.1zm114.122-5.099c.44 1.662.729 3.363.843 5.098 1.005 14.852-10.27 27.753-25.135 28.759-6.174.416-12.171-1.258-17.184-4.743-.059-.04-.117-.082-.178-.12-.759-.537-1.497-1.114-2.208-1.734-5.435-4.744-8.696-11.318-9.183-18.508-.2-2.995.088-5.923.84-8.753h52.205zm30.785 101.267v17.932c0 1.322-1.103 2.44-2.41 2.44h-81.427c-1.306 0-2.41-1.117-2.41-2.44v-17.932c0-9.432 7.659-17.106 17.074-17.106h41.224.01.008 10.856c9.416 0 17.075 7.674 17.075 17.106zm-64.829-32.221-2.557-21.328c3.377.865 6.872 1.318 10.424 1.318.965 0 1.935-.033 2.907-.099 5.259-.356 10.224-1.675 14.749-3.76l2.86 23.868h-28.383zm70.908-170.051c-2.948.199-5.899-.089-8.722-.834v-52.234c1.654-.438 3.347-.717 5.068-.83 14.865-1.01 27.776 10.271 28.783 25.139.06.883.076 1.761.051 2.634-.003.081-.011.161-.011.242-.23 6.147-2.537 11.99-6.648 16.695-4.75 5.438-11.33 8.701-18.521 9.188zm37.687-41.539c-2.543-6.873-6.814-12.866-12.258-17.492l27.964-27.949c3.474 6.23 8.635 11.392 14.864 14.867zm49.142-40.863c-12.763 0-23.146-10.385-23.146-23.15 0-12.766 10.383-23.151 23.146-23.151 12.747 0 23.117 10.385 23.117 23.151 0 12.765-10.37 23.15-23.117 23.15z"/><path d="m315.783 147.491c0-13.66-11.112-24.774-24.771-24.774s-24.771 11.114-24.771 24.774c0 13.644 11.112 24.744 24.771 24.744s24.771-11.1 24.771-24.744zm-34.427 0c0-5.326 4.332-9.659 9.656-9.659s9.656 4.333 9.656 9.659c0 5.31-4.332 9.63-9.656 9.63s-9.656-4.32-9.656-9.63z"/><path d="m208.783 330.817h30.044c4.174 0 7.557-3.383 7.557-7.557s-3.383-7.557-7.557-7.557h-30.044c-.18 0-.376-.198-.376-.378v-36.838c0-.18.197-.377.376-.377h95.26c.18 0 .376.198.376.377v36.838c0 .18-.197.378-.376.378h-29.213c-4.174 0-7.557 3.384-7.557 7.557 0 4.174 3.383 7.557 7.557 7.557h29.214c8.542 0 15.491-6.95 15.491-15.493v-36.838c0-8.542-6.949-15.492-15.491-15.492h-95.26c-8.542 0-15.491 6.95-15.491 15.492v36.838c-.001 8.543 6.948 15.493 15.49 15.493z"/><path d="m200.85 237.204h19.934c4.174 0 7.557-3.383 7.557-7.557s-3.383-7.557-7.557-7.557h-19.934c-4.174 0-7.557 3.383-7.557 7.557-.001 4.173 3.383 7.557 7.557 7.557z"/><path d="m292.043 237.204h19.934c4.174 0 7.557-3.383 7.557-7.557s-3.383-7.557-7.557-7.557h-19.934c-4.174 0-7.557 3.383-7.557 7.557 0 4.173 3.383 7.557 7.557 7.557z"/></g></g></svg>