<svg id="Capa_1" enable-background="new 0 0 511.991 511.991" height="512" viewBox="0 0 511.991 511.991" width="512" xmlns="http://www.w3.org/2000/svg"><g><g><g><g><g><path d="m367.41 251.648c7.505-11.914 13.154-25.279 16.436-39.795 15.508-68.586-27.521-136.759-96.107-152.267s-136.759 27.521-152.267 96.107c-3.971 17.565-4.095 35.1-.942 51.733z" fill="#a8e7ef"/><path d="m383.84 211.855c-3.272 14.51-8.921 27.877-16.435 39.793l-34.707-6.59c7.503-11.919 13.153-25.285 16.435-39.793 14.532-64.227-22.28-128.095-83.351-148.684 7.271.357 14.609 1.337 21.962 3.002 68.578 15.514 111.611 83.684 96.096 152.272z" fill="#70d9e6"/><ellipse cx="255.994" cy="203.072" fill="#1c96f9" rx="91.347" ry="252.335" transform="matrix(.187 -.982 .982 .187 8.73 416.687)"/><circle cx="93.754" cy="128.16" fill="#1785f8" r="21.595"/><path d="m503.895 250.146c-9.411 49.561-128.025 68.67-264.947 42.67-76.008-14.433-141.673-39.729-183.441-67.867 40.671 21.449 95.031 40.04 156.065 51.63 136.911 25.998 255.534 6.901 264.947-42.67 4.19-22.067-13.971-46.446-47.507-69 50.636 26.669 80.102 57.753 74.883 85.237z" fill="#1785f8"/><ellipse cx="247.778" cy="246.337" fill="#d4f2f6" rx="47.308" ry="148.947" transform="matrix(.187 -.982 .982 .187 -40.459 443.81)"/><path d="m358.43 476.538-297.985-56.584 80.605-224.722c28.785-5.118 70.392-3.946 115.553 4.63s84.301 22.737 109.207 38.05z" fill="#d2f0a2"/><g fill="#bcea73"><path d="m364.928 266.547c-24.577-16.284-65.578-31.584-113.273-40.641s-91.441-9.85-120.286-3.71l9.679-26.968c28.785-5.118 70.392-3.946 115.553 4.63s84.301 22.737 109.207 38.05z"/><path d="m358.427 476.535-37.241-7.072 7.716-249.374c14.285 5.545 26.781 11.587 36.905 17.819z"/></g></g><g><g><ellipse cx="66.615" cy="176.727" fill="#d4f2f6" rx="14.951" ry="17.225" transform="matrix(.187 -.982 .982 .187 -119.438 209.203)"/></g><g><ellipse cx="157.508" cy="147.824" fill="#d4f2f6" rx="14.951" ry="17.225" transform="matrix(.187 -.982 .982 .187 -17.105 274.99)"/></g><g><ellipse cx="264.487" cy="158.349" fill="#d4f2f6" rx="14.951" ry="17.225" transform="matrix(.187 -.982 .982 .187 59.576 388.651)"/></g><g><ellipse cx="441.848" cy="247.981" fill="#d4f2f6" rx="14.951" ry="17.225" transform="matrix(.187 -.982 .982 .187 115.791 635.809)"/></g><g><ellipse cx="367.876" cy="187.771" fill="#d4f2f6" rx="14.951" ry="17.225" transform="matrix(.187 -.982 .982 .187 114.771 514.159)"/></g></g></g></g><g><circle cx="433.655" cy="110.651" fill="#a8e7ef" r="21.595"/><path d="m455.249 110.649c0 11.931-9.671 21.602-21.593 21.602-3.997 0-7.747-1.086-10.954-2.99 8.477-1.954 14.793-9.543 14.793-18.612 0-9.06-6.306-16.658-14.783-18.612 3.207-1.895 6.947-2.98 10.944-2.98 11.921-.001 21.593 9.67 21.593 21.592z" fill="#70d9e6"/></g><g><circle cx="93.754" cy="110.651" fill="#bcea73" r="21.595"/><path d="m115.348 110.649c0 11.931-9.671 21.602-21.593 21.602-3.997 0-7.747-1.086-10.954-2.99 8.477-1.954 14.793-9.543 14.793-18.612 0-9.06-6.306-16.658-14.783-18.612 3.207-1.895 6.947-2.98 10.944-2.98 11.922-.001 21.593 9.67 21.593 21.592z" fill="#99d53b"/></g></g><g><path d="m480.343 189.906c-3.131-2.708-7.868-2.367-10.578.766s-2.367 7.869.766 10.579c13.722 11.87 29.371 29.746 26.001 47.497-4.827 25.419-48.419 43.397-112.854 47.359 8.707-4.543 15.999-11.112 17.797-20.58 1.974-10.39-2.386-26.731-34.354-45.579-22.457-13.24-54.282-25.076-89.611-33.327-4.033-.938-8.067 1.564-9.01 5.598-.941 4.034 1.564 8.067 5.598 9.009 5 1.168 9.83 2.382 14.498 3.635l-9.839 74.913c-.539 4.107 2.353 7.873 6.46 8.413.331.043.66.065.986.065 3.707 0 6.931-2.749 7.427-6.524l9.544-72.667c23.118 7.13 41.458 15.162 55.005 23.021l-7.244 234.225c-.128 4.14 3.124 7.6 7.265 7.729.079.002.157.003.235.003 4.035 0 7.367-3.207 7.492-7.268l5.105-165.069c81.244-2.479 133.527-24.825 140.236-60.156 3.722-19.607-6.971-40.921-30.925-61.642zm-93.605 82.822c-.871 4.586-6.16 8.9-14.883 12.331l1.024-33.117c10.234 8.126 14.861 15.51 13.859 20.786z"/><path d="m82.5 358.468c-3.897-1.398-8.192.628-9.592 4.527l-19.522 54.426c-1.398 3.899.629 8.193 4.527 9.592.837.3 1.691.442 2.532.442 3.076 0 5.961-1.908 7.06-4.97l19.522-54.426c1.399-3.898-.629-8.192-4.527-9.591z"/><path d="m240.758 189.546c-66.206-10.08-140.345-5.74-146.677 27.608-1.798 9.468 2.579 18.254 9.016 25.673-58.499-27.306-92.466-60.011-87.64-85.431 2.99-15.741 20.908-28.969 50.693-37.57 3.853 11.559 14.767 19.92 27.604 19.92 16.043 0 29.096-13.052 29.096-29.095 0-.08-.005-.158-.006-.238 44.396-3.33 95.652.194 148.792 10.284 66.447 12.618 126.723 33.844 169.725 59.768 1.212.73 2.546 1.078 3.865 1.078 2.542 0 5.021-1.293 6.43-3.629 2.139-3.547.997-8.157-2.551-10.295-18.261-11.009-39.483-21.186-62.866-30.258-15.858-43.196-51.889-74.926-96.846-85.091-48.035-10.859-97.826 5.207-130.511 41.937-13.883-.066-27.309.433-40.178 1.493-5.093-8.467-14.37-14.145-24.949-14.145-13.931 0-25.6 9.844-28.433 22.939-47.866 12.95-61.598 34.298-64.6 50.104-6.709 35.331 33.743 75.285 108.424 107.373l-23.782 66.303c-1.398 3.899.629 8.193 4.527 9.592.837.3 1.691.442 2.532.442 3.076 0 5.961-1.908 7.06-4.97l47.164-131.49c15.481-2.334 35.483-3.065 59.597-1.21l-33.935 135.894c-1.004 4.019 1.44 8.09 5.459 9.093.61.152 1.222.226 1.823.226 3.361 0 6.42-2.276 7.271-5.685l34.48-138.079c5.536.632 11.254 1.389 17.159 2.288 4.089.622 7.921-2.19 8.543-6.286.623-4.094-2.192-7.919-6.286-8.543zm45.326-122.644c35.579 8.044 64.879 31.283 80.825 63.388-28.585-9.868-59.824-18.128-92.474-24.329-32.66-6.202-64.668-9.973-94.929-11.264 28.713-25.848 68.277-36.457 106.578-27.795zm-192.33 29.654c7.772 0 14.096 6.323 14.096 14.095s-6.323 14.095-14.096 14.095c-7.771 0-14.095-6.323-14.095-14.095s6.323-14.095 14.095-14.095zm24.39 140.325c-6.858-6.39-10.197-12.343-9.326-16.928 1.011-5.324 8.031-10.514 20.536-14.323z"/><path d="m42.323 172.115c-2.309 12.162 6.709 24.125 20.103 26.669 1.706.324 3.402.48 5.067.48 11.411 0 21.397-7.311 23.413-17.923v-.001c2.31-12.162-6.709-24.125-20.103-26.669-13.396-2.544-26.17 5.282-28.48 17.444zm33.847 6.426c-.754 3.968-5.763 6.491-10.945 5.507-5.179-.984-8.918-5.167-8.165-9.134.644-3.387 4.388-5.72 8.691-5.72.738 0 1.495.069 2.254.213 5.178.984 8.918 5.167 8.165 9.134z"/><path d="m143.741 128.684c-5.63 3.277-9.367 8.437-10.523 14.527-1.157 6.091.429 12.262 4.466 17.375 3.789 4.799 9.342 8.1 15.637 9.295 1.706.324 3.418.484 5.112.484 4.559 0 8.991-1.158 12.844-3.4 5.63-3.277 9.367-8.437 10.523-14.528 2.31-12.163-6.709-24.126-20.103-26.669-6.291-1.195-12.672-.16-17.956 2.916zm23.322 20.955c-.45 2.369-2.282 3.75-3.334 4.362-2.13 1.241-4.904 1.658-7.61 1.144s-5.135-1.918-6.663-3.854c-.754-.955-1.952-2.912-1.502-5.281s2.281-3.75 3.334-4.362c1.532-.893 3.397-1.358 5.332-1.358.754 0 1.52.071 2.279.215 5.179.983 8.917 5.166 8.164 9.134z"/><path d="m288.778 162.962c0-.001 0-.001 0 0 2.31-12.163-6.709-24.126-20.103-26.67-13.396-2.544-26.17 5.283-28.48 17.444-2.309 12.162 6.709 24.125 20.103 26.669 1.706.324 3.402.48 5.067.48 11.411 0 21.398-7.311 23.413-17.923zm-14.736-2.8c-.754 3.968-5.764 6.489-10.945 5.507-5.179-.984-8.918-5.167-8.165-9.134.644-3.387 4.388-5.72 8.691-5.72.738 0 1.495.069 2.254.213 5.178.984 8.918 5.167 8.165 9.134z"/><path d="m446.037 225.924c-13.397-2.546-26.171 5.283-28.48 17.443v.001c-2.31 12.162 6.709 24.126 20.103 26.669 1.706.324 3.402.48 5.067.48 11.411 0 21.397-7.311 23.413-17.924 2.308-12.161-6.71-24.125-20.103-26.669zm5.366 23.87c-.754 3.968-5.765 6.492-10.945 5.507-5.179-.984-8.918-5.167-8.165-9.134.754-3.968 5.763-6.491 10.945-5.507 5.179.984 8.918 5.168 8.165 9.134z"/><path d="m372.064 165.715c-13.396-2.544-26.169 5.282-28.479 17.443v.001c-2.31 12.162 6.709 24.125 20.104 26.669 1.705.324 3.417.484 5.111.484 4.559 0 8.992-1.158 12.844-3.4 5.63-3.277 9.367-8.437 10.523-14.527 1.157-6.091-.429-12.262-4.466-17.375-3.789-4.799-9.342-8.1-15.637-9.295zm5.366 23.871c-.45 2.369-2.281 3.75-3.334 4.362-2.13 1.241-4.908 1.656-7.61 1.144-5.179-.983-8.918-5.166-8.165-9.134.754-3.968 5.772-6.489 10.944-5.507 2.706.514 5.135 1.918 6.663 3.854.754.955 1.953 2.911 1.502 5.281z"/><path d="m110.044 59.353c1.465 1.465 3.384 2.197 5.304 2.197 1.919 0 3.839-.732 5.304-2.197l3.995-3.995 3.995 3.995c1.465 1.464 3.385 2.197 5.304 2.197s3.839-.732 5.304-2.197c2.929-2.929 2.929-7.678 0-10.606l-3.995-3.995 3.995-3.995c2.929-2.929 2.929-7.677 0-10.606s-7.677-2.93-10.607 0l-3.995 3.995-3.995-3.995c-2.93-2.929-7.678-2.929-10.607 0s-2.929 7.678 0 10.606l3.995 3.995-3.995 3.995c-2.931 2.928-2.931 7.677-.002 10.606z"/><path d="m372.403 61.1c1.465 1.464 3.385 2.197 5.304 2.197s3.839-.732 5.304-2.197l3.995-3.995 3.994 3.995c1.465 1.464 3.385 2.197 5.304 2.197s3.839-.732 5.304-2.197c2.929-2.929 2.929-7.678 0-10.606l-3.995-3.995 3.995-3.995c2.929-2.929 2.929-7.678 0-10.606-2.93-2.929-7.678-2.929-10.607 0l-3.995 3.995-3.995-3.995c-2.93-2.929-7.678-2.929-10.607 0s-2.929 7.678 0 10.606l3.995 3.995-3.995 3.995c-2.93 2.928-2.93 7.677-.001 10.606z"/><path d="m420.204 352.854c-2.93-2.929-7.678-2.929-10.607 0l-3.995 3.995-3.995-3.995c-2.929-2.929-7.677-2.93-10.607 0-2.929 2.929-2.929 7.677 0 10.606l3.995 3.995-3.995 3.997c-2.929 2.929-2.929 7.678 0 10.606 1.465 1.464 3.385 2.197 5.304 2.197s3.839-.732 5.304-2.197l3.995-3.995 3.995 3.995c1.465 1.465 3.384 2.197 5.304 2.197 1.919 0 3.839-.732 5.304-2.197 2.929-2.929 2.929-7.677 0-10.606l-3.995-3.995 3.995-3.995c2.927-2.93 2.927-7.679-.002-10.608z"/><path d="m433.655 139.746c16.043 0 29.095-13.052 29.095-29.095s-13.052-29.095-29.095-29.095-29.096 13.052-29.096 29.095 13.053 29.095 29.096 29.095zm0-43.19c7.771 0 14.095 6.323 14.095 14.095s-6.323 14.095-14.095 14.095-14.096-6.323-14.096-14.095 6.324-14.095 14.096-14.095z"/></g></g></svg>